<svg xmlns="http://www.w3.org/2000/svg" xmlns:xlink="http://www.w3.org/1999/xlink" width="500" zoomAndPan="magnify" viewBox="0 0 375 374.999991" height="500" preserveAspectRatio="xMidYMid meet" version="1.0"><defs><clipPath id="d69a769296"><path d="M 67 37.5 L 320 37.5 L 320 332 L 67 332 Z M 67 37.5 " clip-rule="nonzero"/></clipPath><clipPath id="f42fd598ae"><path d="M 47.046875 307 L 328 307 L 328 337.5 L 47.046875 337.5 Z M 47.046875 307 " clip-rule="nonzero"/></clipPath></defs><g clip-path="url(#d69a769296)"><path fill="#49131f" d="M 68.261719 160.457031 C 68.074219 159.550781 66.578125 158.933594 67.191406 158.070312 C 67.855469 157.125 69.046875 157.984375 69.96875 158.207031 C 74.304688 159.261719 78.640625 159.644531 83.332031 158.40625 C 82.566406 158.152344 82.035156 157.976562 81.507812 157.796875 C 75.96875 155.898438 72.011719 152.0625 68.703125 147.40625 C 68.394531 146.976562 68.140625 146.480469 68.414062 146.007812 C 68.777344 145.382812 69.460938 145.390625 70.105469 145.457031 C 72.183594 145.679688 74.265625 145.640625 76.285156 145.082031 C 81.429688 143.664062 84.316406 139.882812 86.167969 135.226562 C 87.816406 131.089844 89.144531 126.820312 91.742188 123.128906 C 92.160156 122.542969 91.9375 122.132812 91.667969 121.609375 C 88.09375 114.46875 85.90625 106.914062 84.585938 99.046875 C 83.546875 92.875 83.515625 86.695312 83.546875 80.476562 C 83.597656 71.371094 85.304688 62.519531 87.3125 53.703125 C 87.789062 51.613281 88.632812 49.601562 89.148438 47.519531 C 90.011719 44.0625 93.035156 42.925781 95.910156 43.578125 C 108.792969 46.488281 121.207031 50.777344 133.054688 56.636719 C 136.621094 58.394531 140.109375 60.339844 143.429688 62.542969 C 144.378906 63.175781 145.136719 63.339844 146.15625 62.761719 C 146.996094 62.277344 147.917969 61.8125 148.859375 61.652344 C 151.296875 61.234375 152.632812 59.828125 153.601562 57.601562 C 155.773438 52.621094 159.523438 48.910156 163.875 45.757812 C 165.65625 44.464844 167.648438 43.445312 169.03125 41.636719 C 169.710938 40.746094 170.589844 40.4375 171.59375 41.226562 C 171.9375 42.746094 172.976562 42.675781 174.132812 42.339844 C 176.496094 41.097656 178.878906 39.886719 181.207031 38.582031 C 181.976562 38.152344 182.660156 37.511719 183.535156 38.105469 C 184.386719 38.683594 184.023438 39.609375 183.867188 40.359375 C 183 44.714844 181.402344 48.796875 178.914062 52.5 C 178.785156 52.6875 178.722656 52.921875 178.542969 53.355469 C 180.757812 52.796875 182.757812 52.238281 184.777344 51.789062 C 188.652344 50.921875 192.589844 50.597656 196.550781 50.730469 C 199.847656 50.839844 203.058594 50.429688 206.183594 49.386719 C 206.898438 49.152344 207.589844 48.984375 208.027344 49.664062 C 208.445312 50.320312 208.15625 50.953125 207.5625 51.472656 C 206.761719 52.171875 206.015625 52.929688 204.972656 53.925781 C 208.113281 54.609375 210.960938 55.230469 213.703125 56.25 C 217.847656 57.804688 221.886719 59.558594 225.660156 61.886719 C 226.574219 62.449219 227.328125 62.417969 228.175781 61.886719 C 240.171875 54.34375 253.292969 49.472656 266.882812 45.722656 C 268.851562 45.179688 270.816406 44.660156 272.78125 44.136719 C 273.347656 43.066406 274.398438 43.847656 275.15625 43.511719 C 276.503906 43.515625 277.851562 43.316406 279.183594 43.636719 C 281.304688 44.539062 282.207031 46.394531 282.917969 48.398438 C 283.910156 49.292969 284.21875 50.515625 284.542969 51.726562 C 286.804688 60.117188 288.175781 68.621094 288.734375 77.316406 C 289.535156 89.660156 288.089844 101.640625 284.050781 113.320312 C 283.25 115.640625 282.402344 117.945312 281.296875 120.136719 C 280.699219 121.328125 280.691406 122.355469 281.445312 123.480469 C 283.714844 126.847656 285.175781 130.597656 286.480469 134.417969 C 287.371094 137.019531 288.804688 139.28125 290.695312 141.269531 C 292.902344 143.589844 295.554688 144.773438 298.78125 144.660156 C 299.722656 144.625 300.671875 144.605469 301.613281 144.710938 C 303.769531 144.953125 304.476562 146.265625 303.363281 148.128906 C 301.863281 150.640625 299.78125 152.679688 297.5625 154.535156 C 295.523438 156.242188 293.210938 157.527344 290.679688 158.292969 C 291.125 158.320312 291.625 158.285156 292.109375 158.40625 C 293.65625 158.886719 295.210938 158.933594 296.773438 158.453125 C 298.589844 158.257812 300.355469 157.777344 302.140625 157.390625 C 303.128906 157.175781 304.253906 156.988281 304.878906 158.03125 C 305.484375 159.03125 304.695312 159.820312 304.085938 160.527344 C 299.398438 166 294.085938 170.578125 286.851562 172.460938 C 288.925781 173.21875 291.023438 173.433594 293.179688 173.40625 C 294.207031 173.394531 295.546875 173.089844 296.03125 174.300781 C 296.59375 175.6875 295.351562 176.472656 294.457031 177.21875 C 291.058594 180.035156 287.53125 182.660156 283.511719 184.5625 C 283.007812 184.796875 282.449219 184.964844 281.996094 185.609375 C 282.839844 186.417969 283.957031 186.882812 284.863281 187.613281 C 285.578125 188.1875 286.210938 188.804688 286.035156 189.820312 C 285.859375 190.835938 285.054688 191.210938 284.183594 191.492188 C 283.585938 191.6875 282.960938 191.796875 282.347656 191.910156 C 278.773438 192.589844 275.46875 193.925781 272.472656 195.992188 C 265.039062 201.109375 257.269531 205.621094 248.890625 209.023438 C 246.835938 209.855469 246.882812 209.9375 247.46875 212.140625 C 248.519531 216.09375 249.3125 220.109375 249.691406 224.183594 C 249.878906 226.214844 250.640625 227.8125 252.101562 229.300781 C 257.285156 234.558594 260.980469 240.832031 264.089844 247.472656 C 264.621094 248.964844 265.363281 248.972656 266.59375 248.070312 C 273.859375 242.746094 282.042969 240.050781 291.039062 239.773438 C 291.988281 239.746094 292.910156 239.5 293.851562 239.53125 C 294.640625 239.566406 295.378906 239.761719 295.695312 240.582031 C 296.027344 241.441406 295.5 242.011719 294.902344 242.519531 C 294.660156 242.71875 294.390625 242.882812 294.128906 243.054688 C 293.601562 243.414062 293.011719 243.628906 292.527344 243.824219 C 293.265625 243.472656 294.132812 243.582031 295.011719 243.675781 C 299.84375 244.199219 304.5 245.589844 309.242188 246.578125 C 309.734375 246.679688 310.222656 246.828125 310.480469 247.339844 C 311.121094 247.714844 311.8125 247.65625 312.507812 247.585938 C 313.992188 247.535156 315.488281 247.125 316.957031 247.695312 C 318.308594 248.355469 318.296875 249.539062 318.09375 250.753906 C 317.023438 257.375 315.945312 264 313.105469 270.171875 C 313.066406 270.257812 313.097656 270.386719 313.097656 270.59375 C 314.96875 269.808594 316.625 268.726562 318.242188 267.578125 C 318.671875 267.273438 319.144531 267.023438 319.613281 267.414062 C 320.011719 267.746094 319.871094 268.203125 319.742188 268.636719 C 316.371094 280.089844 311.921875 290.921875 302.367188 298.820312 C 296.128906 303.976562 288.835938 306.597656 280.914062 307.679688 C 279.605469 307.863281 278.292969 307.976562 276.980469 308.125 C 275.359375 309.328125 273.5 308.695312 271.75 308.730469 C 270.382812 308.757812 269.605469 309.105469 269.589844 310.550781 C 269.085938 313.027344 268.433594 315.441406 266.925781 317.53125 C 263.699219 322.007812 259.621094 324.746094 253.8125 323.980469 C 253.042969 323.878906 252.308594 324.085938 251.5625 324.179688 C 250.6875 324.289062 249.71875 324.671875 248.949219 324.316406 C 246.0625 322.957031 243.074219 323.816406 240.132812 323.710938 C 239.472656 323.683594 238.886719 323.683594 238.46875 324.308594 C 236.765625 326.863281 234.207031 328.347656 231.589844 329.753906 C 229.757812 330.804688 227.746094 330.757812 225.746094 330.640625 C 224.417969 330.566406 223.132812 330.65625 221.875 331.097656 C 219.6875 331.878906 217.480469 331.960938 215.25 331.273438 C 213.769531 330.664062 212.328125 330.542969 210.671875 330.777344 C 206.808594 331.328125 203.316406 330.136719 200.40625 327.527344 C 199.289062 326.519531 198.132812 326.136719 196.664062 326.144531 C 189.425781 326.183594 182.183594 326.164062 174.945312 326.164062 C 173.871094 326.164062 172.8125 326.144531 171.964844 327.003906 C 168.652344 330.351562 164.519531 331.234375 160.003906 330.835938 C 159.03125 330.75 158.132812 330.789062 157.257812 331.226562 C 154.792969 332.015625 152.335938 331.992188 149.925781 331.058594 C 148.78125 330.613281 147.609375 330.636719 146.425781 330.664062 C 144.304688 330.710938 142.167969 330.789062 140.183594 329.835938 C 137.671875 328.511719 135.25 327.085938 133.628906 324.636719 C 133.304688 324.148438 132.847656 323.777344 132.214844 323.90625 C 130.738281 324.207031 129.34375 323.890625 127.972656 323.40625 C 127.359375 323.191406 126.746094 323.171875 126.140625 323.476562 C 125.917969 323.589844 125.675781 323.664062 125.433594 323.742188 C 123.320312 324.449219 113.921875 324.273438 111.875 323.414062 C 106.914062 321.332031 104.007812 317.566406 102.9375 312.328125 C 102.613281 310.632812 101.800781 308.917969 103.105469 307.285156 C 103.960938 305.148438 103.125 303.109375 102.761719 301.039062 C 101.457031 293.609375 101.335938 286.121094 101.535156 278.609375 C 101.972656 265.640625 105.273438 253.4375 111.386719 241.992188 C 111.128906 241.09375 111.660156 240.414062 112.078125 239.726562 C 114.328125 236.003906 116.824219 232.460938 119.921875 229.386719 C 120.964844 228.351562 121.484375 227.148438 121.644531 225.730469 C 122.175781 220.976562 122.890625 216.257812 124.285156 211.671875 C 124.726562 210.21875 124.25 209.480469 122.882812 208.941406 C 114.664062 205.667969 106.996094 201.382812 99.746094 196.328125 C 96.285156 193.914062 92.292969 192.730469 88.214844 191.816406 C 86.902344 191.519531 85.246094 191.492188 84.984375 189.738281 C 84.726562 188.042969 86.269531 187.464844 87.359375 186.660156 C 87.808594 186.324219 88.367188 186.148438 88.8125 185.550781 C 86.542969 184.097656 84.15625 182.902344 81.917969 181.441406 C 79.644531 179.964844 77.53125 178.289062 75.492188 176.507812 C 74.910156 176.003906 74.359375 175.417969 74.570312 174.570312 C 74.796875 173.644531 75.496094 173.285156 76.414062 173.273438 C 78.0625 173.527344 79.71875 173.703125 81.359375 173.253906 C 81.722656 173.140625 82.109375 173.152344 82.464844 173.023438 C 83.742188 172.761719 84.957031 172.183594 85.910156 172.21875 C 86.539062 172.128906 86.253906 171.875 86.347656 172.109375 C 86.371094 172.15625 86.316406 172.175781 86.1875 172.203125 C 84.773438 172.507812 83.460938 172.097656 82.15625 171.632812 C 76.714844 169.769531 72.617188 166.058594 68.792969 161.976562 C 68.421875 161.554688 68.050781 161.097656 68.261719 160.457031 Z M 68.261719 160.457031 " fill-opacity="1" fill-rule="nonzero"/></g><g clip-path="url(#f42fd598ae)"><path fill="#68a1c0" d="M 215.371094 330.65625 C 217.957031 331.195312 220.476562 331.085938 222.910156 329.964844 C 223.34375 329.761719 223.832031 329.648438 224.371094 329.753906 C 226.828125 330.230469 229.238281 330.023438 231.582031 329.15625 C 237.222656 327.496094 243.113281 327.476562 248.875 326.5625 C 257.566406 325.175781 266.285156 323.953125 274.640625 321.035156 C 276.300781 320.457031 277.976562 319.890625 279.398438 318.796875 C 280.953125 317.597656 280.925781 316.460938 279.257812 315.40625 C 277.863281 314.527344 276.300781 314.027344 274.71875 313.597656 C 273.265625 313.203125 271.773438 312.9375 270.351562 312.433594 C 269.542969 312.152344 268.59375 311.855469 268.984375 310.621094 C 269.066406 307.949219 269.066406 307.957031 271.757812 308.019531 C 273.496094 308.058594 275.230469 308.070312 276.96875 308.089844 C 279.203125 308.3125 281.433594 308.546875 283.667969 308.765625 C 296.105469 309.949219 308.480469 311.492188 320.421875 315.398438 C 322.207031 315.984375 323.976562 316.625 325.550781 317.734375 C 328.285156 319.65625 328.292969 321.761719 325.457031 323.628906 C 321.433594 326.285156 316.789062 327.285156 312.210938 328.34375 C 303.59375 330.332031 294.816406 331.457031 286.042969 332.464844 C 280.140625 333.144531 274.207031 333.695312 268.265625 334.117188 C 260.132812 334.703125 252.007812 335.292969 243.855469 335.625 C 238.335938 335.847656 232.8125 336.0625 227.300781 336.363281 C 206.238281 337.527344 185.152344 337.042969 164.082031 336.988281 C 156.554688 336.96875 149.015625 336.503906 141.484375 336.277344 C 134.210938 336.054688 126.941406 335.644531 119.679688 335.152344 C 111.921875 334.628906 104.175781 334.015625 96.445312 333.257812 C 85.226562 332.15625 74.011719 330.871094 63.003906 328.324219 C 58.558594 327.292969 54.035156 326.25 50.125 323.664062 C 47.089844 321.652344 47.242188 319.109375 50.503906 317.308594 C 54.394531 315.15625 58.632812 313.949219 62.929688 312.964844 C 71.308594 311.054688 79.820312 309.925781 88.335938 308.824219 C 93.242188 308.1875 98.171875 307.777344 103.089844 307.257812 C 103.226562 309.019531 103.367188 310.78125 103.503906 312.542969 C 102.875 313.585938 101.738281 313.660156 100.742188 313.980469 C 98.527344 314.6875 96.230469 315.191406 94.210938 316.382812 C 92.078125 317.640625 92.085938 318.863281 94.226562 320.09375 C 98.269531 322.414062 102.78125 323.347656 107.273438 324.28125 C 116.757812 326.265625 126.34375 327.496094 136.015625 328.066406 C 137.484375 328.15625 138.742188 328.953125 140.171875 329.148438 C 140.824219 329.359375 141.503906 329.792969 142.128906 329.734375 C 147.171875 329.265625 152.03125 331.683594 157.101562 330.609375 C 160.359375 330.566406 163.617188 330.835938 166.875 330.347656 C 168.484375 330.105469 170.101562 330.667969 171.75 330.664062 C 180.804688 330.613281 189.863281 330.769531 198.914062 330.574219 C 202.546875 330.492188 206.167969 330.546875 209.796875 330.636719 C 211.648438 330.695312 213.507812 330.003906 215.371094 330.65625 Z M 215.371094 330.65625 " fill-opacity="1" fill-rule="nonzero"/></g><path fill="#8ac7df" d="M 316.9375 247.6875 C 315.453125 247.65625 313.96875 247.613281 312.484375 247.582031 C 313.777344 246.957031 315.28125 247.425781 316.625 246.660156 C 317.246094 246.304688 317.46875 247.101562 316.9375 247.6875 Z M 316.9375 247.6875 " fill-opacity="1" fill-rule="nonzero"/><path fill="#febb7d" d="M 87.574219 68.347656 C 88.246094 61.382812 90.011719 54.660156 92.039062 47.996094 C 92.601562 46.132812 93.929688 45.882812 95.617188 46.273438 C 105.542969 48.574219 115.214844 51.605469 124.558594 55.699219 C 131.128906 58.578125 137.539062 61.746094 143.449219 65.832031 C 144.242188 66.382812 144.890625 66.378906 145.691406 65.96875 C 147.480469 65.058594 149.339844 64.328125 151.472656 63.6875 C 151.546875 66.988281 151.230469 70.25 152.410156 73.839844 C 152.785156 61.441406 158.207031 52.464844 168.597656 46.078125 C 168.277344 47.664062 168.011719 48.992188 167.628906 50.878906 C 171.386719 46.675781 175.871094 44.453125 180.695312 42.113281 C 178.292969 50.199219 172.484375 55.957031 168.761719 62.941406 C 178.164062 53.527344 190.148438 53.238281 202.546875 53.359375 C 201.289062 54.199219 200.238281 54.914062 198.871094 55.828125 C 205.8125 56.347656 212.148438 58.011719 218.078125 61.097656 C 217.222656 62.160156 216.121094 61.675781 215.109375 61.515625 C 209.199219 60.554688 203.273438 59.84375 197.269531 60.015625 C 194.625 60.089844 192.003906 60.421875 189.378906 60.742188 C 188.820312 60.808594 188.257812 60.863281 187.683594 60.84375 C 187.300781 60.832031 186.863281 60.75 186.699219 60.394531 C 186.480469 59.902344 186.882812 59.558594 187.21875 59.296875 C 188.410156 58.363281 189.769531 57.703125 191.152344 56.984375 C 183.214844 57.890625 176.476562 61.625 171.675781 64.5625 C 173.527344 63.546875 177.621094 62.800781 181.6875 61.960938 C 191.722656 59.875 201.726562 60.964844 211.722656 62.34375 C 214.839844 62.773438 217.9375 63.332031 221.085938 63.484375 C 222.226562 63.539062 223.273438 64.023438 224.378906 64.238281 C 226.519531 65.945312 228.335938 65.066406 230.398438 63.824219 C 244.453125 55.351562 259.773438 50.078125 275.636719 46.21875 C 278.273438 45.574219 279.175781 46.152344 279.984375 48.675781 C 284.285156 62.101562 286.023438 75.863281 285.214844 89.914062 C 284.628906 100.148438 282.375 110.003906 277.601562 119.472656 C 274.828125 116.394531 271.804688 113.8125 268.585938 111.445312 C 267.785156 110.851562 268.460938 110.320312 268.75 109.832031 C 271.839844 104.53125 274.066406 98.90625 275.199219 92.867188 C 276.855469 84.019531 277.203125 75.15625 275.460938 66.28125 C 274.585938 61.820312 271.988281 60.441406 267.765625 62.308594 C 260.824219 65.382812 255.015625 70.035156 249.652344 75.332031 C 246.25 78.6875 243.652344 82.761719 239.992188 85.957031 C 243.828125 84.515625 247.664062 83.378906 252.207031 83.449219 C 249.285156 85.621094 246.871094 87.703125 245.261719 91.058594 C 251.621094 89.25 257.148438 91.535156 263.167969 92.625 C 259.921875 96.027344 256.058594 96.5 251.972656 96.550781 C 255.535156 97.414062 258.847656 98.691406 262.136719 100.667969 C 259.976562 101.070312 258.105469 100.363281 255.757812 100.445312 C 258.160156 102.023438 260.597656 102.878906 262.570312 104.875 C 261.285156 104.648438 260.207031 104.457031 259.128906 104.269531 C 260.988281 105.496094 261.820312 107.445312 262.972656 109.132812 C 264.957031 112.050781 267.847656 114.027344 270.484375 116.246094 C 276.214844 121.058594 280.355469 126.910156 282.625 134.054688 C 283.34375 136.335938 284.320312 138.507812 285.625 140.523438 C 288.695312 145.261719 292.992188 147.964844 298.699219 148.308594 C 298.671875 148.996094 298.171875 149.191406 297.816406 149.492188 C 292.550781 151.246094 287.242188 151.535156 281.890625 149.976562 C 280.273438 149.503906 279.074219 148.335938 277.953125 147.132812 C 275.015625 143.984375 271.738281 141.289062 268.023438 139.085938 C 261.140625 135.011719 254.289062 134.679688 247.292969 138.789062 C 245.976562 139.5625 244.796875 140.765625 243.082031 140.71875 C 242.144531 140.410156 241.820312 139.546875 241.363281 138.808594 C 237.265625 132.144531 231.285156 128.796875 223.484375 129.511719 C 215.972656 130.195312 210.929688 134.519531 208.054688 141.425781 C 207.792969 142.0625 207.5625 142.722656 207.144531 143.285156 C 206.410156 144.207031 206.054688 145.242188 206.054688 146.433594 C 206.054688 146.925781 205.988281 147.5625 205.347656 147.578125 C 204.722656 147.582031 204.609375 146.9375 204.5625 146.460938 C 204.371094 144.578125 204.367188 142.6875 204.640625 140.8125 C 205.160156 137.25 206.121094 133.828125 208.109375 130.605469 C 207.503906 131.433594 207.40625 132.777344 206.277344 132.625 C 205.039062 132.457031 205.113281 131.128906 204.964844 130.183594 C 204.527344 127.257812 205.179688 124.421875 205.773438 121.589844 C 206.507812 118.085938 207.628906 114.710938 209.609375 111.1875 C 205.765625 113.21875 203.105469 115.820312 200.945312 118.960938 C 199.765625 120.667969 198.597656 122.382812 197.574219 124.199219 C 197.269531 124.730469 196.898438 125.515625 196.226562 125.300781 C 195.398438 125.039062 195.613281 124.144531 195.769531 123.492188 C 196.625 119.882812 197.574219 116.292969 198.050781 112.609375 C 198.648438 107.988281 199.074219 103.363281 198.113281 98.90625 C 195.753906 106.320312 193.175781 113.839844 189.816406 121.066406 C 189.488281 121.777344 189.144531 122.929688 188.257812 122.617188 C 187.238281 122.261719 187.683594 121.097656 187.867188 120.273438 C 188.984375 115.101562 189.953125 109.910156 189.703125 104.578125 C 189.523438 100.660156 188.914062 96.828125 187.28125 93.210938 C 186.96875 92.523438 186.613281 91.859375 186.238281 91.207031 C 185.605469 90.125 184.957031 89.96875 184.070312 90.976562 C 182.394531 92.902344 181.054688 95 180.246094 97.425781 C 178.648438 102.21875 178.683594 107.066406 179.828125 111.941406 C 180.015625 112.734375 180.3125 113.523438 180.199219 114.347656 C 180.082031 115.195312 179.640625 115.429688 178.898438 114.914062 C 178.691406 114.773438 178.914062 114.980469 178.757812 114.792969 C 174.804688 110.226562 172.019531 105.164062 171.871094 99.851562 C 170.511719 105.601562 172.050781 111.753906 175.222656 117.628906 C 175.34375 117.851562 175.464844 118.074219 175.539062 118.316406 C 175.695312 118.78125 176.015625 119.289062 175.554688 119.714844 C 175.117188 120.117188 174.589844 119.882812 174.140625 119.660156 C 172.355469 118.78125 171.015625 117.347656 169.628906 115.976562 C 167.730469 114.085938 166.324219 111.886719 165.328125 109.003906 C 163.980469 112.667969 163.320312 116.0625 163.636719 119.625 C 164.007812 123.773438 164.847656 127.828125 165.898438 131.855469 C 166.140625 132.792969 166.808594 134.15625 165.796875 134.625 C 164.628906 135.179688 164.433594 133.511719 163.777344 132.859375 C 163.261719 132.339844 163.078125 131.566406 162.804688 131.324219 C 165.71875 135.515625 166.769531 140.644531 167.210938 145.957031 C 167.265625 146.574219 167.207031 147.421875 166.519531 147.550781 C 165.644531 147.710938 165.449219 146.808594 165.328125 146.164062 C 165.125 145.082031 164.742188 144.121094 163.921875 143.367188 C 163.382812 142.808594 163.125 142.089844 162.851562 141.390625 C 160.082031 134.425781 154.832031 130.4375 147.535156 129.570312 C 140.003906 128.675781 134.070312 131.824219 129.75 138.023438 C 129.21875 138.78125 128.867188 139.722656 127.832031 140.003906 C 127.015625 140.09375 126.371094 139.683594 125.730469 139.285156 C 121.382812 136.578125 116.664062 135.351562 111.539062 135.515625 C 110 135.5625 108.382812 135.851562 106.902344 135.0625 C 105.964844 134.117188 106.242188 132.972656 106.421875 131.871094 C 107.675781 124.210938 110.074219 116.902344 113.324219 109.882812 C 115.1875 105.851562 117.175781 101.871094 119.632812 98.144531 C 119.785156 97.816406 120.265625 97.535156 120.128906 97.183594 C 119.152344 94.714844 121.003906 93.0625 121.875 91.167969 C 122.4375 89.9375 123.675781 90.453125 124.695312 90.609375 C 125.160156 90.5 125.804688 90.976562 126.066406 90.433594 C 126.289062 89.976562 125.804688 89.503906 125.527344 89.101562 C 124.0625 86.957031 122.074219 85.324219 119.660156 83.421875 C 124.121094 83.515625 127.871094 84.683594 131.390625 86.023438 C 124.296875 77.734375 117.203125 69.253906 107.183594 64.023438 C 105.851562 63.332031 104.511719 62.625 103.117188 62.082031 C 99.785156 60.777344 97.226562 62.046875 96.386719 65.542969 C 95.835938 67.847656 95.4375 70.230469 95.269531 72.597656 C 94.351562 85.621094 96.050781 98.144531 102.773438 109.628906 C 103.449219 110.777344 103.65625 111.523438 102.238281 112.296875 C 101.042969 112.945312 100.042969 113.957031 98.957031 114.804688 C 97.664062 115.363281 97.121094 114.355469 96.542969 113.582031 C 92.332031 107.941406 89.789062 101.582031 88.429688 94.714844 C 86.957031 87.285156 86.765625 79.777344 87.265625 72.246094 C 87.351562 70.949219 87.761719 69.671875 87.574219 68.347656 Z M 87.574219 68.347656 " fill-opacity="1" fill-rule="nonzero"/><path fill="#fdfdfd" d="M 164.296875 143.089844 C 165.457031 143.253906 165.207031 144.382812 165.589844 145.054688 C 165.953125 145.679688 166.0625 146.445312 166.417969 147.125 C 166.527344 144.007812 165.972656 141 165.113281 138.015625 C 164.257812 135.042969 162.917969 132.300781 161.710938 129.402344 C 163.019531 131.0625 164.316406 132.730469 165.820312 134.640625 C 164.871094 129.886719 163.53125 125.488281 163.058594 120.898438 C 162.574219 116.144531 163.375 111.734375 165.394531 107.398438 C 166.867188 113.03125 170.605469 116.703125 175.34375 119.59375 C 173.445312 116.117188 171.882812 112.539062 171.164062 108.648438 C 170.421875 104.695312 170.605469 100.828125 172.394531 97.109375 C 172.046875 104.183594 175.332031 109.730469 179.691406 114.859375 C 178.804688 111.1875 178.105469 107.519531 178.339844 103.738281 C 178.65625 98.5625 180.347656 93.949219 183.859375 90.035156 C 185.003906 88.757812 185.671875 88.941406 186.511719 90.265625 C 188.503906 93.414062 189.496094 96.875 190.027344 100.511719 C 191.0625 107.542969 189.972656 114.394531 188.316406 121.207031 C 188.230469 121.5625 188.167969 121.925781 188.261719 122.335938 C 192.46875 114.113281 195.304688 105.375 198.320312 96.121094 C 200.582031 106.308594 198.570312 115.625 196.238281 124.992188 C 197.398438 122.96875 198.625 121.023438 199.9375 119.128906 C 201.261719 117.214844 202.75 115.417969 204.488281 113.859375 C 206.265625 112.257812 208.222656 110.914062 210.894531 109.777344 C 207.359375 117.152344 204.667969 124.320312 206.027344 132.867188 C 207.226562 131.304688 208.082031 130.1875 208.9375 129.074219 C 206.445312 134.835938 204.445312 140.664062 205.308594 147.09375 C 205.589844 145.6875 205.375 144.105469 206.6875 143.066406 C 207.375 143.648438 207.207031 144.421875 207.140625 145.164062 C 205.96875 157.734375 217.074219 167.597656 229.457031 164.988281 C 230.128906 164.847656 230.800781 164.679688 231.5 164.726562 C 232.914062 165.070312 234.363281 165.015625 235.808594 165.0625 C 239.546875 165.171875 242.984375 166.273438 246.183594 168.175781 C 246.722656 168.5 247.382812 168.871094 247.21875 169.59375 C 247.039062 170.394531 246.257812 170.289062 245.644531 170.253906 C 243.753906 170.152344 241.875 170.242188 240.449219 170.441406 C 243.277344 171.035156 246.277344 172.320312 249.085938 174.074219 C 249.625 174.410156 250.074219 174.941406 249.894531 175.648438 C 249.703125 176.386719 249.019531 176.507812 248.390625 176.554688 C 246.265625 176.707031 244.128906 176.601562 242.003906 176.621094 C 243.578125 177.085938 245.101562 177.664062 246.480469 178.570312 C 246.992188 178.90625 247.65625 179.304688 247.4375 180.03125 C 247.246094 180.621094 246.546875 180.648438 245.988281 180.722656 C 245.550781 180.777344 245.105469 180.757812 244.667969 180.742188 C 251.078125 183.074219 256.820312 186.484375 261.503906 191.488281 C 262.898438 192.972656 264.425781 194.472656 264.507812 196.746094 C 264.367188 196.859375 264.230469 196.972656 264.089844 197.082031 C 253.496094 201.976562 242.246094 204.652344 230.816406 206.585938 C 222.9375 207.925781 214.988281 208.566406 206.984375 208.875 C 201.6875 209.082031 196.414062 208.867188 191.164062 208.636719 C 181.039062 208.195312 171.015625 206.714844 161.121094 204.417969 C 151.148438 202.097656 141.46875 198.976562 132.320312 194.351562 C 127.871094 192.097656 123.644531 189.496094 119.90625 186.15625 C 119.246094 185.570312 118.527344 185.046875 118.339844 184.105469 C 118.347656 183.015625 119.195312 182.632812 119.96875 182.234375 C 122.640625 180.871094 125.488281 180.015625 128.007812 179.527344 C 126.679688 179.6875 125.015625 180.253906 123.359375 180.824219 C 122.945312 180.972656 122.511719 181.050781 122.09375 181.160156 C 121.65625 181.273438 121.121094 181.246094 120.925781 180.804688 C 120.65625 180.199219 121.214844 179.875 121.636719 179.667969 C 123.570312 178.71875 125.617188 178.105469 127.546875 177.648438 C 126.289062 177.703125 124.882812 177.300781 123.449219 177.582031 C 122.78125 177.710938 121.941406 177.730469 121.632812 176.964844 C 121.320312 176.203125 121.941406 175.632812 122.492188 175.242188 C 125.347656 173.207031 128.371094 171.5 131.117188 170.8125 C 130.027344 170.960938 128.226562 171.289062 126.402344 171.410156 C 125.617188 171.464844 124.574219 171.800781 124.285156 170.804688 C 124.019531 169.910156 124.917969 169.351562 125.621094 168.957031 C 128.492188 167.351562 131.511719 166.105469 134.757812 165.488281 C 136.179688 165.21875 137.617188 165.105469 139.03125 164.773438 C 141.347656 164.9375 143.617188 165.460938 145.972656 165.425781 C 155.769531 165.265625 165.347656 156.296875 163.867188 145.371094 C 163.765625 144.585938 163.550781 143.738281 164.296875 143.089844 Z M 164.296875 143.089844 " fill-opacity="1" fill-rule="nonzero"/><path fill="#fdfdfd" d="M 169.886719 281.320312 C 169.683594 278.710938 169.394531 276.109375 169.285156 273.5 C 168.96875 265.773438 168.808594 258.042969 169.109375 250.304688 C 169.144531 249.523438 169.628906 248.179688 168.464844 248.089844 C 167.136719 247.984375 167.480469 249.449219 167.402344 250.261719 C 167.152344 252.824219 167.042969 255.398438 166.882812 257.976562 C 166.546875 259.285156 165.609375 258.964844 164.78125 258.679688 C 162.917969 258.035156 161.316406 256.953125 159.988281 255.636719 C 160.097656 256.214844 160.777344 257 159.976562 257.585938 C 159.1875 258.164062 158.394531 257.644531 157.742188 257.140625 C 155.910156 255.730469 154.554688 253.941406 153.640625 251.824219 C 154.253906 253.660156 154.832031 255.5 155.992188 257.101562 C 156.300781 257.53125 156.785156 258.089844 156.273438 258.613281 C 155.796875 259.097656 155.195312 258.742188 154.710938 258.464844 C 151.554688 256.652344 149.777344 253.707031 148.324219 250.519531 C 147.851562 249.488281 147.535156 248.394531 147.230469 247.210938 C 147.230469 248.691406 147.285156 250.074219 147.609375 251.445312 C 147.765625 252.105469 147.984375 252.960938 147.21875 253.308594 C 146.5 253.632812 145.917969 252.992188 145.46875 252.46875 C 142.386719 248.890625 140.507812 244.761719 139.941406 240.082031 C 139.613281 237.335938 139.613281 234.570312 140.027344 231.738281 C 138.398438 234.148438 137.234375 236.6875 136.347656 239.371094 C 136.191406 239.835938 136.042969 240.441406 135.453125 240.46875 C 134.8125 240.492188 134.703125 239.855469 134.609375 239.390625 C 133.34375 233.238281 133.761719 227.328125 136.914062 222.253906 C 136.5 222.664062 135.949219 223.925781 134.523438 222.917969 C 133.84375 221.414062 134.578125 219.96875 134.691406 218.496094 C 134.773438 218.160156 134.941406 217.871094 135.222656 217.65625 C 136.375 217.136719 137.449219 217.601562 138.507812 217.964844 C 145.925781 220.511719 153.621094 221.566406 161.390625 222.414062 C 170.738281 223.429688 180.105469 223.253906 189.453125 223.039062 C 199.761719 222.804688 209.972656 221.367188 220.0625 219.167969 C 224.863281 218.117188 229.550781 216.691406 234.222656 215.21875 C 235.117188 214.9375 236.003906 214.570312 236.972656 214.816406 C 237.6875 215.058594 238.023438 215.671875 238.359375 216.28125 C 240.320312 219.820312 241.25 223.632812 241.453125 227.644531 C 241.484375 228.265625 241.578125 229.03125 240.824219 229.257812 C 239.984375 229.515625 239.546875 228.789062 239.285156 228.175781 C 238.125 225.5 236.457031 223.148438 234.808594 220.78125 C 235.035156 221.128906 235.378906 221.394531 235.546875 221.789062 C 238.878906 229.378906 240.207031 237.039062 236.375 244.878906 C 235.964844 245.726562 235.5 246.550781 234.808594 247.21875 C 234.484375 247.535156 234.078125 247.828125 233.636719 247.695312 C 233.082031 247.519531 233.007812 246.96875 232.96875 246.449219 C 232.957031 246.324219 232.957031 246.195312 232.96875 246.074219 C 233.609375 241.765625 232.820312 237.570312 232.132812 234.410156 C 232.390625 238.308594 232.707031 243.21875 230.882812 247.996094 C 229.84375 250.71875 228.128906 252.914062 225.933594 254.773438 C 225.414062 255.210938 224.796875 255.757812 224.089844 255.230469 C 223.46875 254.773438 223.710938 254.042969 223.988281 253.496094 C 225.382812 250.808594 224.414062 247.75 225.335938 245.261719 C 224.761719 249.535156 222.199219 252.871094 218.804688 255.703125 C 218.515625 255.945312 218.207031 256.167969 217.871094 256.339844 C 217.222656 256.683594 216.476562 257.375 215.835938 256.691406 C 215.265625 256.078125 215.957031 255.398438 216.347656 254.875 C 217.5 253.324219 218.253906 251.628906 218.429688 249.738281 C 217.128906 252.199219 215.546875 254.519531 213.394531 256.386719 C 212.734375 256.960938 212.039062 257.882812 211.023438 256.851562 C 210.539062 256.363281 210.410156 257.007812 210.175781 257.15625 C 209.078125 257.808594 207.917969 258.277344 206.675781 258.511719 C 205.980469 258.648438 205.28125 258.722656 204.828125 257.976562 C 204.613281 255.15625 204.433594 252.339844 204.15625 249.53125 C 204.101562 248.964844 204.320312 247.949219 203.1875 248.066406 C 202.203125 248.164062 202.601562 249.011719 202.546875 249.558594 C 202.472656 250.304688 202.507812 251.0625 202.492188 251.816406 C 202.183594 254.78125 201.875 257.746094 201.296875 260.683594 C 199.546875 269.566406 197.699219 278.421875 194 286.757812 C 192.847656 289.351562 191.515625 291.847656 189.488281 293.886719 C 186.964844 296.433594 184.574219 296.992188 181.476562 295.25 C 176.113281 292.230469 172.121094 287.933594 170.234375 281.929688 C 170.175781 281.675781 170.1875 281.40625 169.886719 281.320312 Z M 169.886719 281.320312 " fill-opacity="1" fill-rule="nonzero"/><path fill="#feba7d" d="M 204.835938 257.949219 C 207.726562 258.230469 209.886719 256.597656 212.542969 254.773438 C 211.925781 255.734375 211.617188 256.21875 211.300781 256.703125 C 214.996094 254.675781 216.894531 251.199219 218.773438 247.675781 C 219.585938 250.429688 218.785156 252.953125 216.019531 256.414062 C 219.875 255.042969 223.214844 250.734375 225.308594 244.425781 C 226.046875 247.433594 225.671875 250.816406 224.148438 254.863281 C 226.992188 254.121094 230.429688 249.113281 231.183594 244.554688 C 231.90625 240.199219 231.878906 235.820312 231.183594 231.269531 C 233.273438 234.140625 233.898438 238.496094 233.582031 247.230469 C 236.53125 245.308594 238.53125 238.167969 237.929688 233.199219 C 237.324219 228.144531 236.28125 223.214844 233.25 218.917969 C 236.730469 221.515625 238.710938 225.164062 240.625 228.917969 C 240.757812 225.105469 240.085938 221.492188 238.503906 218.058594 C 238.058594 217.097656 237.359375 216.242188 237.191406 215.152344 C 237.0625 214.554688 237.425781 214.183594 237.871094 213.96875 C 239.75 213.070312 241.546875 212 243.566406 211.414062 C 245.390625 216.933594 246.191406 222.644531 246.6875 228.398438 C 248.269531 246.765625 245.207031 264.578125 240.113281 282.132812 C 239.761719 283.335938 239.433594 284.546875 239.089844 285.75 C 238.382812 285.945312 237.910156 285.425781 237.363281 285.164062 C 232.289062 282.722656 226.964844 281.128906 221.390625 280.34375 C 220.5625 280.230469 219.929688 280.054688 219.625 281.292969 C 219.332031 282.507812 218.023438 282.285156 217.046875 282.179688 C 214.484375 281.902344 211.984375 281.265625 209.515625 280.546875 C 207.953125 280.09375 206.398438 279.679688 204.757812 279.699219 C 204.804688 272.449219 205.308594 265.203125 204.835938 257.949219 Z M 204.835938 257.949219 " fill-opacity="1" fill-rule="nonzero"/><path fill="#b6b9bd" d="M 118.636719 183.910156 C 122.484375 187.882812 127.097656 190.78125 131.957031 193.316406 C 143.703125 199.441406 156.308594 202.976562 169.265625 205.34375 C 178.722656 207.070312 188.269531 207.867188 197.890625 208.121094 C 219.996094 208.699219 241.382812 205.1875 262.078125 197.429688 C 262.730469 197.183594 263.375 196.960938 264.089844 197.085938 C 258.132812 201.242188 251.582031 204.25 244.824219 206.789062 C 232.847656 211.289062 220.453125 214.078125 207.75 215.632812 C 194.832031 217.210938 181.90625 217.492188 168.960938 216.28125 C 148.714844 214.386719 129.320312 209.453125 111.363281 199.617188 C 109.390625 198.53125 107.414062 197.445312 105.664062 196.011719 C 105.3125 195.445312 105.496094 194.910156 105.796875 194.417969 C 108.734375 189.636719 112.917969 186.25 117.800781 183.632812 C 117.902344 183.582031 118.042969 183.605469 118.171875 183.613281 C 118.371094 183.640625 118.519531 183.75 118.636719 183.910156 Z M 118.636719 183.910156 " fill-opacity="1" fill-rule="nonzero"/><path fill="#fe854f" d="M 243 140.496094 C 245.382812 139.265625 247.578125 137.691406 250.066406 136.644531 C 256.449219 133.941406 262.441406 135.0625 268.230469 138.414062 C 272.007812 140.589844 275.460938 143.199219 278.269531 146.535156 C 280.628906 149.351562 283.714844 150.085938 287.140625 150.265625 C 290.734375 150.453125 294.234375 149.546875 297.808594 149.511719 C 292.847656 155.484375 283.847656 159.523438 273.21875 149.648438 C 273.824219 151.414062 275.089844 152.351562 275.871094 153.601562 C 275.617188 154.925781 274.597656 154.507812 273.839844 154.402344 C 271.300781 154.03125 268.816406 153.332031 266.257812 153.074219 C 265.902344 153.042969 265.539062 152.847656 265.046875 153.171875 C 266.023438 154.011719 267.101562 154.609375 268.203125 155.113281 C 271.234375 156.484375 274.371094 157.558594 277.621094 158.28125 C 278.8125 158.542969 279.976562 158.570312 281.136719 158.1875 C 282.925781 160.222656 285.382812 160.863281 287.886719 161.386719 C 288.796875 161.582031 289.710938 161.730469 290.621094 161.902344 C 291.941406 162.273438 293.28125 162.523438 294.660156 162.542969 C 295.359375 162.550781 296.1875 162.429688 296.277344 163.503906 C 292.007812 167.308594 286.527344 170.988281 275.925781 168.484375 C 277.890625 170.113281 279.707031 171.621094 281.527344 173.125 C 281.753906 174.199219 280.867188 174.375 280.214844 174.5625 C 276.1875 175.699219 272.09375 176.230469 267.90625 175.714844 C 265.34375 175.398438 263.28125 174.207031 261.558594 172.332031 C 257.683594 168.121094 252.984375 165.21875 247.53125 163.492188 C 245.597656 162.878906 243.652344 162.460938 241.640625 162.261719 C 240.488281 162.144531 239.210938 162.335938 238.308594 161.304688 C 238.078125 160.351562 238.746094 159.800781 239.261719 159.1875 C 243.175781 154.5625 244.542969 149.332031 243.148438 143.402344 C 242.917969 142.453125 242.367188 141.492188 243 140.496094 Z M 243 140.496094 " fill-opacity="1" fill-rule="nonzero"/><path fill="#feba7d" d="M 134.859375 223.074219 C 136.480469 222.523438 137.277344 220.910156 138.863281 220.109375 C 134.375 226.1875 133.816406 232.929688 135.40625 240.035156 C 136.675781 236.332031 138.003906 232.640625 141.046875 229.582031 C 139.46875 238.464844 140.515625 246.429688 147.089844 252.964844 C 146.660156 250.390625 146.0625 247.84375 147.347656 244.984375 C 148.71875 250.652344 150.757812 255.628906 156.089844 258.40625 C 154.105469 255.953125 152.949219 253.222656 153.164062 249.933594 C 154.792969 252.964844 156.453125 255.953125 160.117188 257.8125 C 159.699219 256.226562 158.695312 255.285156 159.167969 253.886719 C 160.824219 255.6875 162.609375 257.242188 164.882812 258.054688 C 165.535156 258.292969 166.269531 258.835938 166.902344 257.96875 C 166.546875 263.078125 166.660156 268.195312 166.6875 273.304688 C 166.984375 274.527344 166.640625 275.792969 166.882812 277.023438 C 166.890625 277.414062 166.894531 277.808594 166.894531 278.199219 C 166.484375 278.789062 165.917969 279.160156 165.238281 279.367188 C 162.851562 280.101562 160.433594 280.773438 157.957031 281.128906 C 157.019531 281.265625 156.023438 281.339844 155.1875 280.882812 C 153.054688 279.710938 150.832031 280 148.613281 280.378906 C 146.390625 280.746094 144.175781 281.144531 141.953125 281.5 C 140.984375 281.65625 139.980469 281.957031 139.003906 281.453125 C 138.816406 281.320312 138.667969 281.152344 138.5625 280.957031 C 137.035156 277.535156 136.515625 273.84375 135.71875 270.230469 C 133.117188 258.386719 132.125 246.382812 132.628906 234.269531 C 132.777344 230.699219 133.390625 227.167969 134.226562 223.6875 C 134.285156 223.335938 134.421875 223.039062 134.859375 223.074219 Z M 134.859375 223.074219 " fill-opacity="1" fill-rule="nonzero"/><path fill="#e06c45" d="M 89.472656 173.234375 C 91.066406 171.6875 93.195312 170.75 95.019531 168.425781 C 86.207031 171.082031 79.65625 167.875 73.445312 161.703125 C 84.570312 163.394531 92.292969 158.664062 98.117188 150.136719 C 94.246094 152.949219 90.53125 156.082031 85.265625 155.679688 C 80.070312 155.28125 76.351562 152.375 73.007812 148.597656 C 74.277344 148 75.550781 148.113281 76.734375 147.796875 C 81.671875 146.492188 85.042969 143.300781 87.492188 138.96875 C 87.925781 138.210938 88.34375 137.4375 88.757812 136.675781 C 90.085938 135.675781 91.679688 135.65625 93.230469 135.421875 C 97.074219 134.84375 100.945312 134.5 104.820312 134.214844 C 105.515625 134.164062 106.214844 134.191406 106.6875 134.847656 C 107.144531 135.421875 107.332031 136.085938 107.230469 136.785156 C 106.484375 142.054688 106.597656 147.367188 106.417969 152.660156 C 106.363281 154.191406 106.933594 155.679688 106.753906 157.21875 C 107.554688 161.964844 108.558594 166.644531 110.652344 171.035156 C 111.09375 171.96875 111.648438 172.945312 111.203125 174.074219 C 109.851562 175.742188 107.832031 175.308594 106.132812 175.453125 C 101.144531 175.863281 96.15625 175.382812 91.203125 174.765625 C 90.339844 174.652344 89.398438 174.464844 89.472656 173.234375 Z M 89.472656 173.234375 " fill-opacity="1" fill-rule="nonzero"/><path fill="#fe854f" d="M 269.726562 268.773438 C 269.386719 267.019531 269.046875 265.261719 268.707031 263.507812 C 268.851562 262.777344 268.964844 262.050781 269.605469 261.511719 C 275.078125 256.933594 280.652344 252.542969 287.914062 251.089844 C 289.953125 250.679688 292.007812 250.390625 294.0625 250.109375 C 294.929688 249.996094 296.019531 249.785156 296.492188 250.648438 C 297.035156 251.648438 295.933594 252.152344 295.347656 252.746094 C 292.957031 255.125 290.332031 257.28125 288.414062 260.511719 C 290.824219 260.066406 292.910156 259.449219 295.070312 259.21875 C 296.894531 259.023438 298.710938 258.917969 300.523438 259.21875 C 303.203125 259.664062 303.800781 261.109375 302.246094 263.3125 C 301.238281 264.753906 300 266.015625 298.90625 267.394531 C 297.5625 269.09375 297.757812 269.640625 299.789062 270.273438 C 303.890625 271.554688 304.226562 271.402344 306.5 267.804688 C 309.449219 263.140625 311.234375 257.976562 313.03125 252.804688 C 313.394531 251.761719 312.632812 251.191406 312.53125 250.371094 C 315.3125 250.335938 315.28125 250.332031 314.84375 253.066406 C 313.773438 259.816406 312.324219 266.441406 308.636719 272.335938 C 307.941406 273.445312 307.132812 274.488281 306.378906 275.558594 C 306.253906 276.242188 306.078125 276.886719 305.597656 277.441406 C 300.996094 282.738281 295.089844 285.925781 288.492188 288.003906 C 288.191406 288.097656 287.875 288.089844 287.558594 288.035156 C 287.371094 287.996094 287.199219 287.914062 287.046875 287.808594 C 286.515625 287.316406 286.332031 286.636719 286.117188 285.984375 C 283.5 278.097656 278.542969 272.375 270.6875 269.34375 C 270.324219 269.222656 270.046875 268.96875 269.726562 268.773438 Z M 269.726562 268.773438 " fill-opacity="1" fill-rule="nonzero"/><path fill="#b7b8bd" d="M 169.886719 281.320312 C 171.648438 283.515625 172.632812 286.207031 174.476562 288.363281 C 176.609375 290.867188 178.785156 293.285156 181.820312 294.738281 C 184.675781 296.105469 186.605469 295.78125 188.835938 293.597656 C 190.902344 291.570312 192.199219 289.058594 193.359375 286.476562 C 196.800781 278.8125 198.625 270.667969 200.21875 262.480469 C 200.824219 259.347656 201.566406 256.234375 201.792969 253.035156 C 201.835938 252.488281 202.023438 252.066406 202.507812 251.789062 C 202.859375 253.148438 202.785156 254.53125 202.785156 255.910156 C 202.835938 273.605469 201.613281 291.1875 198.308594 308.601562 C 197.964844 310.425781 196.96875 311.972656 196.394531 313.6875 C 196.253906 313.976562 196.105469 314.230469 195.726562 314.257812 C 195.472656 314.277344 194.960938 313.523438 195.046875 314.652344 C 195.164062 316.207031 194.121094 316.730469 192.679688 316.125 C 192.273438 315.957031 191.917969 315.6875 191.554688 315.445312 C 189.878906 314.3125 189.863281 314.3125 188.914062 316.066406 C 188.382812 317.046875 187.65625 317.214844 186.742188 316.625 C 186.210938 316.28125 185.75 315.835938 185.402344 315.320312 C 184.75 314.363281 184.054688 314.285156 183.011719 314.808594 C 180.898438 315.871094 180.183594 315.441406 179.644531 313.058594 C 179.523438 312.535156 179.707031 311.75 179.074219 311.585938 C 178.394531 311.414062 178.0625 312.1875 177.59375 312.570312 C 176.691406 313.300781 176.703125 314.808594 175.378906 315.171875 C 172.011719 304.136719 170.867188 292.742188 169.886719 281.320312 Z M 169.886719 281.320312 " fill-opacity="1" fill-rule="nonzero"/><path fill="#feb97c" d="M 238.457031 161.21875 C 245.875 161.546875 252.585938 163.847656 258.457031 168.433594 C 259.789062 169.472656 261.039062 170.652344 262.152344 171.921875 C 263.820312 173.839844 265.875 174.878906 268.351562 175.109375 C 272.59375 175.5 276.738281 174.898438 280.804688 173.683594 C 281.074219 173.601562 281.289062 173.320312 281.53125 173.132812 C 283.976562 174.660156 286.371094 176.296875 289.644531 176.828125 C 284.207031 180.984375 278.195312 183.257812 271.625 184.957031 C 274.644531 186.324219 277.339844 187.539062 280.375 188.910156 C 275.945312 189.730469 272.492188 191.667969 269.160156 193.921875 C 267.664062 194.9375 266.265625 196.125 264.519531 196.746094 C 257.648438 187.660156 255.832031 186.316406 242.394531 180.453125 C 243.988281 179.792969 245.542969 180.320312 247.195312 179.914062 C 244.980469 177.980469 242.210938 177.515625 239.269531 176.136719 C 243.019531 175.667969 246.285156 175.914062 249.609375 175.847656 C 248.722656 173.992188 245.894531 172.695312 237.679688 170.300781 C 240.898438 169.460938 243.855469 169.421875 247.390625 169.738281 C 243.6875 167.140625 240.0625 166.011719 236.152344 165.730469 C 234.589844 165.613281 233.007812 165.703125 231.472656 165.300781 C 231.46875 164.875 231.695312 164.554688 232.027344 164.371094 C 233.910156 163.355469 235.757812 162.285156 237.582031 161.175781 C 237.84375 161.015625 238.171875 160.988281 238.457031 161.21875 Z M 238.457031 161.21875 " fill-opacity="1" fill-rule="nonzero"/><path fill="#feba7c" d="M 242.535156 284.238281 C 243.203125 281.734375 243.867188 279.234375 244.542969 276.734375 C 247.097656 277.546875 249.5625 278.609375 252.046875 279.605469 C 254.152344 280.445312 256.308594 281.109375 258.542969 281.480469 C 261.242188 281.925781 262.207031 281.246094 262.738281 278.554688 C 264.246094 271 258.820312 265.222656 251.164062 266.226562 C 249.820312 266.398438 248.445312 266.816406 247.113281 266.128906 C 247.699219 261.789062 248.554688 257.492188 249.039062 253.128906 C 249.757812 246.679688 249.824219 240.21875 249.75 233.75 C 249.746094 233.191406 249.75 232.632812 249.75 231.597656 C 257 239.96875 261.894531 249.113281 264.796875 259.347656 C 267.707031 269.601562 268.433594 280.066406 267.8125 290.664062 C 267.316406 291.160156 266.695312 291.128906 266.054688 291.089844 C 264.292969 290.988281 262.550781 290.738281 260.847656 290.316406 C 255.425781 288.964844 250.007812 287.585938 244.65625 285.976562 C 243.753906 285.703125 242.609375 285.582031 242.535156 284.238281 Z M 242.535156 284.238281 " fill-opacity="1" fill-rule="nonzero"/><path fill="#fd834e" d="M 124.792969 81.960938 C 121.5625 81.183594 118.742188 81.09375 115.914062 81.203125 C 115.449219 81.222656 114.8125 80.988281 114.570312 81.578125 C 114.308594 82.238281 114.917969 82.609375 115.316406 82.964844 C 117.140625 84.578125 119 86.15625 121.046875 87.917969 C 115.867188 88.371094 110.988281 89.332031 106.160156 90.589844 C 103.867188 91.1875 103.769531 91.457031 105.347656 93.292969 C 106.800781 94.984375 108.707031 96.09375 110.773438 97.359375 C 108.988281 98.378906 107.210938 99.160156 105.777344 100.445312 C 105.351562 100.828125 104.523438 101.023438 104.773438 101.84375 C 104.976562 102.503906 105.644531 102.695312 106.214844 102.960938 C 106.835938 103.242188 107.609375 102.925781 108.179688 103.421875 C 108.222656 103.988281 107.683594 104.101562 107.441406 104.4375 C 107.015625 105.023438 106.027344 105.351562 106.28125 106.214844 C 106.539062 107.066406 107.582031 106.683594 108.320312 107.0625 C 107.460938 108.296875 106.328125 109.179688 105.238281 110.167969 C 98.246094 98.394531 96.257812 85.667969 97.347656 72.292969 C 97.515625 70.222656 97.78125 68.171875 98.222656 66.15625 C 98.804688 63.511719 100.191406 62.746094 102.601562 63.894531 C 111.316406 68.066406 118.394531 74.269531 124.792969 81.960938 Z M 124.792969 81.960938 " fill-opacity="1" fill-rule="nonzero"/><path fill="#fd824d" d="M 263.351562 106.703125 C 264.0625 106.253906 265.09375 107.570312 265.492188 106.429688 C 265.800781 105.527344 264.777344 105.070312 264.203125 104.519531 C 263.800781 104.136719 263.351562 103.804688 262.738281 103.308594 C 263.929688 103.132812 264.945312 103.046875 265.933594 102.832031 C 267.355469 102.523438 267.34375 101.761719 266.394531 100.882812 C 264.863281 99.464844 262.90625 98.710938 261.046875 97.585938 C 263.019531 96.210938 265.027344 95.011719 266.453125 93.109375 C 267.710938 91.429688 267.683594 91.125 265.699219 90.714844 C 260.859375 89.722656 256.085938 88.347656 250.964844 87.945312 C 252.820312 86.304688 254.558594 84.800781 256.253906 83.253906 C 256.746094 82.800781 257.566406 82.34375 257.332031 81.613281 C 257.0625 80.777344 256.125 81.175781 255.492188 81.160156 C 252.753906 81.101562 250.015625 81.121094 247.019531 81.753906 C 253.265625 74.175781 260.335938 68.152344 268.875 63.949219 C 271.609375 62.605469 272.921875 63.3125 273.480469 66.378906 C 274.113281 69.847656 274.382812 73.347656 274.417969 76.878906 C 274.519531 87.964844 272.863281 98.648438 267.394531 108.511719 C 266.613281 109.925781 266.078125 110.09375 265.113281 108.816406 C 264.570312 108.089844 263.625 107.671875 263.351562 106.703125 Z M 263.351562 106.703125 " fill-opacity="1" fill-rule="nonzero"/><path fill="#e18253" d="M 134.503906 223.511719 C 135.167969 225.035156 134.292969 226.429688 134.070312 227.867188 C 133.378906 232.292969 133.382812 236.734375 133.3125 241.195312 C 133.140625 251.660156 134.699219 261.921875 136.898438 272.109375 C 137.53125 275.046875 138.265625 277.964844 138.957031 280.886719 C 138.691406 281.238281 138.421875 281.628906 137.960938 281.703125 C 135.808594 282.050781 133.707031 282.695312 131.507812 282.738281 C 128.476562 272 125.804688 261.203125 124.96875 250.015625 C 124.242188 240.226562 124.128906 230.460938 125.765625 220.746094 C 126.207031 218.097656 126.632812 215.441406 127.574219 212.90625 C 130.570312 213.601562 133.210938 214.964844 135.484375 217.035156 C 135.550781 217.339844 135.5 217.613281 135.34375 217.875 C 135.289062 218.105469 135.234375 218.328125 135.183594 218.554688 C 134.609375 221.277344 133.054688 223.558594 131.84375 225.992188 C 131.730469 226.214844 132.085938 226.171875 131.84375 226.097656 C 131.804688 226.085938 131.816406 226.023438 131.875 225.917969 C 132.488281 224.828125 133.0625 223.691406 134.503906 223.511719 Z M 134.503906 223.511719 " fill-opacity="1" fill-rule="nonzero"/><path fill="#feba7d" d="M 312.527344 250.378906 C 314.28125 250.558594 314.210938 251.453125 313.722656 252.867188 C 311.652344 258.875 309.511719 264.832031 305.820312 270.105469 C 304.804688 271.550781 303.742188 272.15625 302.019531 271.535156 C 300.960938 271.160156 299.816406 271.011719 298.738281 270.667969 C 296.78125 270.042969 296.550781 269.5 297.730469 267.871094 C 298.792969 266.398438 300.019531 265.046875 301.164062 263.636719 C 301.558594 263.152344 301.949219 262.65625 302.28125 262.125 C 302.914062 261.089844 302.757812 260.382812 301.445312 260.058594 C 298.429688 259.320312 295.449219 259.796875 292.480469 260.292969 C 291.246094 260.503906 290.046875 260.933594 288.824219 261.214844 C 288.367188 261.324219 287.800781 261.839844 287.4375 261.34375 C 287.039062 260.792969 287.636719 260.320312 287.933594 259.871094 C 290 256.746094 292.714844 254.222656 295.5 251.769531 C 295.777344 251.527344 296.039062 251.277344 296.625 250.746094 C 293.644531 250.53125 291.117188 251.203125 288.59375 251.628906 C 282.023438 252.722656 276.8125 256.449219 271.820312 260.53125 C 270.714844 261.429688 269.421875 262.175781 268.707031 263.5 C 267.832031 260.4375 266.945312 257.371094 266.078125 254.304688 C 265.894531 253.664062 265.664062 253.140625 266.425781 252.515625 C 272.332031 247.65625 279.023438 244.609375 286.59375 243.527344 C 286.832031 243.492188 287.074219 243.519531 287.613281 243.519531 C 285.855469 245.179688 284.285156 246.667969 282.433594 248.40625 C 284.636719 248.03125 286.394531 247.480469 288.21875 247.210938 C 294.101562 246.351562 299.6875 247.828125 305.304688 249.179688 C 307.679688 249.773438 310.082031 250.195312 312.527344 250.378906 Z M 312.527344 250.378906 " fill-opacity="1" fill-rule="nonzero"/><path fill="#fe864f" d="M 204.769531 279.707031 C 205.171875 278.8125 205.757812 278.722656 206.695312 279.007812 C 209.917969 280 213.164062 280.960938 216.523438 281.433594 C 217.203125 281.527344 217.890625 281.585938 218.578125 281.601562 C 219.234375 281.609375 219.59375 281.296875 219.089844 280.6875 C 217.894531 279.242188 219.015625 279.273438 219.941406 279.410156 C 225.414062 280.195312 230.78125 281.386719 235.824219 283.738281 C 236.988281 284.285156 238.414062 284.433594 239.101562 285.757812 C 238.484375 288.414062 237.863281 291.066406 237.242188 293.730469 C 236.8125 294.5625 236.023438 294.757812 235.183594 294.832031 C 230.175781 295.285156 225.171875 295.765625 220.179688 296.296875 C 219.867188 296.332031 219.546875 296.347656 219.234375 296.285156 C 213.75 295.285156 208.742188 292.976562 203.753906 290.609375 C 204.089844 286.980469 204.425781 283.34375 204.769531 279.707031 Z M 204.769531 279.707031 " fill-opacity="1" fill-rule="nonzero"/><path fill="#b5babf" d="M 135.34375 217.871094 C 135.308594 217.585938 135.277344 217.3125 135.242188 217.03125 C 134.699219 215.523438 135.546875 214.28125 135.996094 212.960938 C 143.03125 214.785156 150.085938 216.503906 157.28125 217.621094 C 169.945312 219.585938 182.660156 220.117188 195.453125 219.515625 C 208.992188 218.886719 222.257812 216.613281 235.277344 212.921875 C 237.628906 212.253906 239.949219 211.496094 242.230469 210.640625 C 243.214844 210.273438 243.429688 210.648438 243.578125 211.429688 C 243.019531 212.753906 241.621094 212.78125 240.582031 213.378906 C 239.480469 214.015625 238.125 214.191406 237.203125 215.167969 C 233.488281 216.28125 229.792969 217.507812 226.042969 218.488281 C 218.339844 220.503906 210.511719 221.84375 202.59375 222.792969 C 192.207031 224.042969 181.785156 224.101562 171.367188 223.832031 C 161.066406 223.566406 150.867188 222.328125 140.890625 219.636719 C 139.027344 219.128906 137.277344 218.199219 135.34375 217.871094 Z M 135.34375 217.871094 " fill-opacity="1" fill-rule="nonzero"/><path fill="#e18254" d="M 89.472656 173.234375 C 90.625 174.738281 92.421875 174.207031 93.828125 174.308594 C 97.632812 174.585938 101.460938 175.1875 105.273438 174.738281 C 107.203125 174.511719 109.320312 174.980469 111.0625 173.667969 C 111.640625 173.496094 111.898438 173.925781 112.199219 174.269531 C 113.601562 177.03125 115.503906 179.464844 117.398438 181.898438 C 117.847656 182.476562 118.527344 182.96875 118.246094 183.863281 C 113.796875 186.644531 109.601562 189.71875 106.660156 194.191406 C 106.28125 194.761719 106 195.394531 105.667969 196 C 104.054688 195.394531 102.796875 194.214844 101.394531 193.28125 C 98.222656 191.171875 94.777344 189.757812 90.605469 188.960938 C 93.632812 187.609375 96.304688 186.410156 99.363281 185.050781 C 92.832031 183.171875 86.761719 180.945312 81.273438 176.804688 C 84.425781 176.277344 86.921875 174.707031 89.472656 173.234375 Z M 89.472656 173.234375 " fill-opacity="1" fill-rule="nonzero"/><path fill="#e18254" d="M 106.492188 134.800781 C 101.03125 135.3125 95.558594 135.65625 90.160156 136.683594 C 89.707031 136.773438 89.222656 137.183594 88.757812 136.683594 C 91.316406 127.265625 96.636719 119.726562 104.355469 113.824219 C 106.835938 111.929688 108.90625 109.664062 110.226562 106.824219 C 110.683594 105.835938 111.566406 105.414062 112.367188 104.714844 C 111.175781 104.164062 110.167969 105.105469 108.96875 104.949219 C 110.691406 102.972656 113.027344 102.199219 115.695312 100.914062 C 113.269531 100.914062 111.425781 100.914062 109.582031 100.914062 C 111.359375 99.609375 113.222656 98.582031 115.261719 97.898438 C 116.796875 98.1875 118.351562 97.816406 119.878906 98.050781 C 119.953125 98.097656 120.023438 98.152344 120.097656 98.199219 C 118.035156 102.207031 115.855469 106.152344 113.929688 110.222656 C 110.523438 117.449219 108.207031 125.03125 106.914062 132.917969 C 106.8125 133.53125 106.875 134.167969 106.855469 134.792969 C 106.738281 134.9375 106.617188 134.9375 106.492188 134.800781 Z M 106.492188 134.800781 " fill-opacity="1" fill-rule="nonzero"/><path fill="#feba7c" d="M 203.753906 290.617188 C 206.070312 290.671875 208.007812 291.933594 210.132812 292.601562 C 213.453125 293.636719 216.457031 295.949219 220.125 295.539062 C 225.828125 294.898438 231.582031 294.730469 237.25 293.730469 C 236.558594 298.867188 235.832031 304.003906 236.011719 309.363281 C 235.003906 308.859375 234.152344 308.386719 233.265625 307.996094 C 232.4375 307.632812 231.496094 307.417969 230.734375 307.96875 C 229.488281 308.878906 228.78125 308.394531 227.820312 307.425781 C 224.871094 304.433594 220.917969 304.164062 217.425781 306.550781 C 216.988281 306.847656 216.726562 307.285156 216.003906 306.78125 C 212.785156 304.535156 209.648438 305.074219 206.652344 307.320312 C 205.449219 307.203125 205.308594 306.15625 204.957031 305.335938 C 203.289062 301.449219 203.300781 297.359375 203.589844 293.253906 C 203.636719 292.367188 203.691406 291.492188 203.753906 290.617188 Z M 203.753906 290.617188 " fill-opacity="1" fill-rule="nonzero"/><path fill="#fe8550" d="M 139.058594 281.191406 C 143.597656 280.742188 147.992188 279.261719 152.605469 279.34375 C 153.507812 279.355469 154.292969 279.300781 155.113281 280.148438 C 155.9375 280.996094 157.382812 280.585938 158.535156 280.316406 C 161.328125 279.664062 164.109375 278.917969 166.890625 278.207031 C 167.179688 282.097656 167.476562 285.992188 167.765625 289.882812 C 167.589844 290.75 166.875 291.054688 166.183594 291.355469 C 162.210938 293.089844 158.207031 294.765625 154.140625 296.273438 C 152.179688 296.996094 150.234375 297.152344 148.226562 296.585938 C 146.054688 295.984375 143.765625 295.800781 141.707031 294.785156 C 141.53125 294.664062 141.390625 294.511719 141.28125 294.320312 C 140.203125 290.515625 139.71875 286.578125 138.703125 282.75 C 138.554688 282.214844 138.542969 281.613281 139.058594 281.191406 Z M 139.058594 281.191406 " fill-opacity="1" fill-rule="nonzero"/><path fill="#e06843" d="M 287.53125 287.660156 C 294.988281 285.453125 301.480469 281.742188 306.378906 275.5625 C 309.605469 275.339844 312.378906 273.722656 315.480469 272.449219 C 315.40625 273.917969 314.773438 274.953125 314.351562 276.027344 C 311.050781 284.453125 306.722656 292.175781 299.246094 297.691406 C 295.351562 300.554688 291.058594 302.585938 286.359375 303.753906 C 285.300781 303.210938 285.546875 302.253906 285.761719 301.449219 C 286.722656 297.839844 286.84375 294.167969 286.761719 290.460938 C 286.75 289.460938 286.722656 288.445312 287.53125 287.660156 Z M 287.53125 287.660156 " fill-opacity="1" fill-rule="nonzero"/><path fill="#e07f52" d="M 126.835938 275.980469 C 128.738281 283.121094 130.820312 290.214844 131.789062 297.703125 C 128.148438 293.449219 123.652344 291.234375 118.054688 291.644531 C 112.367188 292.0625 108.394531 295.15625 105.304688 300.273438 C 104.222656 293.320312 104.011719 286.738281 104.308594 280.128906 C 107.65625 280.679688 110.886719 279.914062 114.117188 279.25 C 118.40625 278.359375 122.527344 276.800781 126.835938 275.980469 Z M 126.835938 275.980469 " fill-opacity="1" fill-rule="nonzero"/><path fill="#fdfdfd" d="M 140.164062 309.792969 C 141.476562 310.699219 142.464844 310.140625 143.457031 309.160156 C 145.089844 307.539062 146.890625 306.257812 149.40625 306.476562 C 150.78125 306.597656 152 306.988281 152.980469 307.921875 C 153.777344 308.683594 154.507812 308.90625 155.40625 308.125 C 157.9375 305.914062 161.847656 306.671875 163.933594 309.234375 C 164.75 310.230469 165.414062 310.371094 166.613281 309.710938 C 168.511719 308.664062 169.75 309.953125 170.808594 311.386719 C 171.730469 314.847656 168.921875 318.976562 165.382812 319.394531 C 164.847656 319.453125 164.386719 319.359375 164 318.964844 C 163.886719 318.5 163.925781 317.839844 163.214844 317.914062 C 162.65625 317.96875 162.40625 318.410156 162.4375 318.996094 C 162.464844 319.367188 162.433594 319.742188 162.425781 320.113281 C 161.246094 321.550781 159.542969 321.726562 157.882812 322.003906 C 154.988281 322.480469 152.085938 322.9375 149.144531 322.730469 C 147.65625 322.628906 146.113281 322.574219 145.070312 321.230469 C 144.949219 320.691406 144.820312 320.148438 144.714844 319.609375 C 144.621094 319.144531 144.789062 318.398438 144.175781 318.40625 C 143.757812 318.410156 143.171875 318.863281 143.207031 319.5625 C 143.21875 319.871094 143.171875 320.179688 143.144531 320.488281 C 140.65625 319.984375 139.058594 318.386719 138.324219 316.085938 C 137.578125 313.679688 138.433594 311.5625 140.164062 309.792969 Z M 140.164062 309.792969 " fill-opacity="1" fill-rule="nonzero"/><path fill="#fdfdfd" d="M 209.355469 320.085938 C 209.285156 319.730469 209.273438 319.351562 209.132812 319.03125 C 208.964844 318.628906 209.183594 317.902344 208.527344 317.886719 C 207.953125 317.875 207.925781 318.53125 207.746094 318.957031 C 205.140625 318.84375 203.78125 317.128906 202.851562 315.011719 C 202.003906 313.082031 201.839844 311.144531 203.625 309.539062 C 205.046875 310.625 206.222656 310.261719 207.347656 309.011719 C 209.644531 306.457031 213.324219 306.160156 215.601562 308.210938 C 216.375 308.910156 217.089844 308.75 217.726562 308.089844 C 220.238281 305.496094 224.710938 306.035156 227.28125 308.886719 C 228.261719 309.972656 229.023438 310.792969 230.648438 309.429688 C 232.074219 308.234375 235.519531 310.425781 236.121094 312.683594 C 236.273438 313.269531 236.382812 313.867188 236.503906 314.457031 C 235.84375 317.183594 233.640625 319.160156 230.894531 319.5 C 230.183594 319.589844 229.515625 319.546875 229.003906 318.964844 C 228.875 318.417969 228.808594 317.734375 228.042969 317.839844 C 227.386719 317.933594 227.503906 318.582031 227.457031 319.058594 C 227.394531 319.675781 227.433594 320.316406 227.058594 320.859375 C 226.210938 321.761719 225.046875 321.921875 223.941406 321.933594 C 220.183594 321.988281 216.414062 322.3125 212.6875 321.585938 C 211.460938 321.351562 210.175781 321.222656 209.355469 320.085938 Z M 209.355469 320.085938 " fill-opacity="1" fill-rule="nonzero"/><path fill="#e08255" d="M 105.710938 267.265625 C 106.492188 260.804688 108.558594 254.722656 111.183594 248.8125 C 113.558594 243.453125 116.691406 238.539062 120.390625 233.992188 C 120.6875 233.628906 120.871094 233.097656 121.605469 233.070312 C 121.636719 233.308594 121.699219 233.527344 121.691406 233.75 C 121.421875 244.191406 122.257812 254.546875 124.257812 264.804688 C 124.316406 265.109375 124.304688 265.429688 124.332031 265.742188 C 123.652344 266.539062 122.773438 266.320312 121.898438 266.246094 C 117.859375 265.910156 113.84375 265.398438 109.769531 266.078125 C 108.347656 266.320312 107.175781 267.273438 105.710938 267.265625 Z M 105.710938 267.265625 " fill-opacity="1" fill-rule="nonzero"/><path fill="#feba7d" d="M 141.746094 294.484375 C 143.765625 294.914062 145.796875 295.277344 147.789062 295.800781 C 149.984375 296.371094 152.074219 296.371094 154.21875 295.527344 C 158.769531 293.738281 163.300781 291.894531 167.757812 289.882812 C 168.5 294.828125 169.246094 299.769531 169.984375 304.710938 C 170.179688 305.992188 170.371094 307.269531 170.578125 308.664062 C 169.0625 308.042969 167.65625 307.511719 166.164062 308.292969 C 165.488281 308.644531 165.140625 308.140625 164.722656 307.769531 C 161.429688 304.890625 158.851562 304.574219 154.972656 306.613281 C 154.5625 306.828125 154.300781 306.976562 153.800781 306.71875 C 148.632812 304.078125 146.550781 304.332031 142.371094 308.039062 C 141.1875 307.753906 141.214844 306.714844 141.347656 305.941406 C 141.886719 302.882812 141.441406 299.847656 141.28125 296.804688 C 141.242188 296.007812 141.132812 295.164062 141.746094 294.484375 Z M 141.746094 294.484375 " fill-opacity="1" fill-rule="nonzero"/><path fill="#e06842" d="M 105.710938 267.265625 C 107.398438 264.96875 110.023438 265.277344 112.359375 265.046875 C 116.367188 264.660156 120.34375 265.398438 124.335938 265.742188 C 125.171875 269.15625 126.007812 272.566406 126.835938 275.980469 C 126.484375 276.378906 126.425781 276.980469 125.683594 277.082031 C 121.820312 277.632812 118.171875 279.074219 114.378906 279.953125 C 111.679688 280.578125 108.921875 280.6875 106.214844 281.21875 C 105.257812 281.40625 104.667969 280.96875 104.304688 280.121094 C 104.316406 275.792969 104.695312 271.496094 105.710938 267.265625 Z M 105.710938 267.265625 " fill-opacity="1" fill-rule="nonzero"/><path fill="#bec0c4" d="M 255.292969 321.222656 C 256.765625 318.984375 256.960938 316.796875 256.296875 314.332031 C 255.394531 314.964844 255.507812 315.695312 255.398438 316.339844 C 255.082031 318.164062 254.160156 319.609375 252.679688 320.699219 C 249.898438 322.75 246.5625 321.773438 245.34375 318.539062 C 244.964844 317.539062 244.835938 316.484375 244.871094 315.394531 C 244.890625 314.699219 245.523438 313.53125 244.675781 313.402344 C 243.539062 313.234375 243.714844 314.632812 243.503906 315.386719 C 243.132812 316.746094 243.167969 318.175781 243.734375 319.460938 C 244.398438 320.96875 243.613281 321.4375 242.40625 321.621094 C 241.671875 321.726562 240.898438 321.644531 240.152344 321.546875 C 239.457031 321.457031 238.988281 321.140625 239.242188 320.273438 C 240.152344 317.195312 239.707031 314.175781 238.664062 311.230469 C 238.207031 309.933594 238.355469 308.910156 239.382812 308.023438 C 240.496094 307.070312 241.6875 306.398438 243.113281 307.359375 C 243.941406 307.917969 244.515625 307.707031 245.269531 307.125 C 247.140625 305.679688 248.316406 305.785156 250.121094 307.324219 C 250.53125 307.675781 250.855469 308.28125 251.527344 307.753906 C 253.378906 306.304688 254.785156 307.238281 256.113281 308.601562 C 256.671875 309.175781 257.042969 309.746094 258.113281 309.046875 C 259.539062 308.113281 260.765625 309.105469 261.652344 310.25 C 263.417969 312.535156 263.371094 315.058594 262.179688 317.53125 C 260.886719 320.253906 258.605469 321.445312 255.292969 321.222656 Z M 255.292969 321.222656 " fill-opacity="1" fill-rule="nonzero"/><path fill="#bec1c7" d="M 127.351562 313.035156 C 127.050781 316.503906 128.078125 320.867188 123.28125 321.585938 C 118.3125 322.332031 116.859375 318.351562 115.996094 313.757812 C 114.589844 316.722656 115.476562 318.871094 116.507812 321 C 113.707031 321.605469 111.074219 320.300781 109.609375 317.578125 C 108.242188 315.050781 108.511719 311.613281 110.320312 309.847656 C 111.386719 308.804688 112.652344 307.976562 114.160156 309.039062 C 114.738281 309.449219 115.039062 309.261719 115.417969 308.871094 C 116.886719 307.34375 118.367188 306.007812 120.554688 307.796875 C 121.09375 308.238281 121.441406 307.613281 121.8125 307.324219 C 123.597656 305.921875 124.988281 305.851562 126.671875 307.351562 C 127.445312 308.039062 127.992188 308.113281 128.773438 307.488281 C 129.90625 306.578125 131 307.082031 132.113281 307.613281 C 133.269531 308.164062 133.019531 309.1875 132.925781 310.066406 C 132.730469 311.871094 132.3125 313.652344 132.152344 315.453125 C 132.039062 316.691406 132.097656 317.96875 132.234375 319.210938 C 132.496094 321.613281 132.355469 321.78125 129.976562 321.667969 C 128.625 321.597656 128.054688 321.160156 128.449219 319.675781 C 129.078125 317.34375 128.996094 315.050781 127.351562 313.035156 Z M 127.351562 313.035156 " fill-opacity="1" fill-rule="nonzero"/><path fill="#e7754b" d="M 264.527344 315.226562 C 264.375 312.582031 263.632812 310.484375 261.855469 308.890625 C 260.785156 307.9375 259.558594 307.25 258.09375 308.019531 C 257.3125 308.429688 256.960938 307.9375 256.503906 307.511719 C 255.175781 306.269531 253.683594 305.617188 251.867188 306.371094 C 251.257812 306.621094 250.808594 306.476562 250.304688 306.113281 C 248.519531 304.832031 246.707031 304.730469 244.925781 306.128906 C 244.507812 306.457031 244.078125 306.789062 243.566406 306.464844 C 241.96875 305.457031 240.441406 306.015625 238.898438 306.652344 C 238.730469 302.6875 243.316406 296.667969 247.800781 294.898438 C 253.089844 292.816406 258.886719 294.394531 262.765625 298.976562 C 266.761719 303.703125 267.570312 310.238281 264.527344 315.226562 Z M 264.527344 315.226562 " fill-opacity="1" fill-rule="nonzero"/><path fill="#e7764c" d="M 107.453125 314.734375 C 104.71875 308.984375 105.683594 303.6875 109.492188 298.925781 C 112.804688 294.792969 117.175781 293.171875 122.410156 294.496094 C 127.542969 295.792969 132.070312 300.992188 132.820312 306.363281 C 131.222656 306.1875 129.628906 305.636719 128.09375 306.566406 C 127.65625 306.828125 127.292969 306.371094 126.910156 306.175781 C 126.355469 305.886719 125.675781 305.300781 125.238281 305.4375 C 121.96875 306.429688 118.257812 305.292969 115.253906 307.492188 C 114.898438 307.753906 114.628906 307.992188 114.097656 307.917969 C 110.625 307.441406 108.316406 309.179688 107.667969 312.722656 C 107.554688 313.390625 107.527344 314.0625 107.453125 314.734375 Z M 107.453125 314.734375 " fill-opacity="1" fill-rule="nonzero"/><path fill="#5280a1" d="M 268.976562 310.632812 C 269.171875 311.554688 269.925781 311.65625 270.675781 311.851562 C 273.28125 312.523438 275.953125 312.992188 278.414062 314.121094 C 279.722656 314.722656 281.25 315.257812 281.398438 316.933594 C 281.554688 318.675781 280.078125 319.433594 278.8125 320.066406 C 274.234375 322.367188 269.289062 323.527344 264.324219 324.625 C 256.691406 326.3125 248.9375 327.328125 241.1875 328.296875 C 238.011719 328.691406 234.828125 329.382812 231.574219 329.148438 C 234.113281 327.527344 236.78125 326.058594 238.21875 323.207031 C 238.5625 322.527344 239.15625 322.730469 239.707031 322.875 C 241.402344 323.328125 243.082031 323.40625 244.59375 322.34375 C 245.179688 321.933594 245.492188 322.246094 245.894531 322.554688 C 247.335938 323.65625 248.984375 323.917969 250.722656 323.570312 C 252.328125 323.246094 253.90625 323.328125 255.542969 323.402344 C 259.847656 323.597656 263.027344 321.289062 265.652344 318.117188 C 267.46875 315.945312 268.269531 313.308594 268.976562 310.632812 Z M 268.976562 310.632812 " fill-opacity="1" fill-rule="nonzero"/><path fill="#fe854f" d="M 247.113281 266.128906 C 250.378906 265.492188 253.648438 264.960938 256.941406 265.960938 C 261.457031 267.328125 264.535156 273.023438 263.546875 278.144531 C 262.742188 282.285156 262.011719 282.738281 257.789062 282.039062 C 253.527344 281.324219 249.765625 279.207031 245.710938 277.902344 C 245.113281 277.707031 244.871094 277.183594 244.535156 276.738281 C 245.394531 273.195312 246.25 269.660156 247.113281 266.128906 Z M 247.113281 266.128906 " fill-opacity="1" fill-rule="nonzero"/><path fill="#507ea0" d="M 140.171875 329.164062 C 133.871094 328.710938 127.574219 328.175781 121.300781 327.355469 C 114.394531 326.453125 107.5625 325.269531 100.824219 323.507812 C 98.257812 322.835938 95.800781 321.886719 93.492188 320.578125 C 91.183594 319.273438 91.066406 317.53125 93.257812 316.140625 C 96.378906 314.15625 99.980469 313.4375 103.503906 312.550781 C 104.671875 316.214844 106.375 319.507812 109.816406 321.605469 C 112.199219 323.058594 114.675781 323.953125 117.523438 323.210938 C 118.320312 323.003906 119.132812 323.039062 119.941406 323.328125 C 120.40625 323.496094 120.925781 323.527344 121.421875 323.589844 C 123.441406 323.824219 125.199219 322.667969 127.007812 322.425781 C 128.679688 322.199219 130.539062 323.933594 132.550781 323.050781 C 133.175781 322.777344 133.480469 323.023438 133.761719 323.515625 C 135.257812 326.109375 137.550781 327.816406 140.171875 329.164062 Z M 140.171875 329.164062 " fill-opacity="1" fill-rule="nonzero"/><path fill="#4e7b9d" d="M 215.371094 330.65625 C 200.890625 331.65625 186.382812 331.53125 171.882812 331.367188 C 167.5 331.3125 163.113281 331.078125 158.714844 331.046875 C 158.132812 331.039062 157.597656 330.902344 157.09375 330.628906 C 158.003906 330.058594 158.980469 330.125 159.996094 330.230469 C 164.507812 330.714844 168.484375 329.585938 171.667969 326.226562 C 172.234375 325.625 172.855469 325.410156 173.667969 325.417969 C 181.792969 325.457031 189.914062 325.464844 198.039062 325.464844 C 198.839844 325.464844 199.457031 325.667969 200.0625 326.238281 C 203.394531 329.417969 207.253906 330.992188 211.933594 330.003906 C 213.136719 329.742188 214.289062 330.085938 215.371094 330.65625 Z M 215.371094 330.65625 " fill-opacity="1" fill-rule="nonzero"/><path fill="#a2a1a5" d="M 175.359375 315.179688 C 175.863281 313.4375 176.960938 312.105469 178.265625 310.910156 C 179.261719 309.996094 179.808594 310.371094 180.125 311.480469 C 180.210938 311.777344 180.171875 312.105469 180.199219 312.414062 C 180.441406 315.226562 180.8125 315.441406 183.132812 313.980469 C 184.117188 313.363281 184.917969 313.027344 185.507812 314.433594 C 185.699219 314.875 186.089844 315.253906 186.453125 315.589844 C 186.890625 315.992188 187.210938 316.75 187.960938 316.488281 C 188.605469 316.261719 188.445312 315.5625 188.523438 315.011719 C 188.789062 313.234375 189.199219 313.054688 190.671875 314.015625 C 190.882812 314.148438 191.089844 314.289062 191.300781 314.433594 C 192.152344 315.023438 192.921875 316.214844 194.011719 315.796875 C 195.191406 315.347656 194.214844 313.953125 194.730469 313.007812 C 195.277344 313.09375 195.4375 314.503906 196.386719 313.691406 C 195.6875 316.730469 196.265625 319.640625 197.445312 322.640625 C 189.691406 322.640625 182.082031 322.640625 174.339844 322.640625 C 175.183594 320.226562 175.78125 317.761719 175.359375 315.179688 Z M 175.359375 315.179688 " fill-opacity="1" fill-rule="nonzero"/><path fill="#febb7b" d="M 269.726562 268.773438 C 272.671875 268.765625 274.914062 270.46875 277.078125 272.082031 C 282.339844 275.992188 285.753906 281.191406 287.152344 287.644531 C 287.261719 288.433594 286.628906 288.605469 286.125 288.753906 C 284.015625 289.375 281.917969 290.066406 279.667969 289.957031 C 279.480469 289.917969 279.304688 289.835938 279.144531 289.730469 C 278.464844 289.089844 278.382812 288.191406 278.097656 287.371094 C 276.617188 283.085938 274.371094 279.347656 270.585938 276.6875 C 270.304688 274.050781 270.015625 271.414062 269.726562 268.773438 Z M 269.726562 268.773438 " fill-opacity="1" fill-rule="nonzero"/><path fill="#e18357" d="M 242.535156 284.238281 C 244.769531 285.75 247.441406 286.03125 249.941406 286.699219 C 254.519531 287.914062 259.042969 289.386719 263.746094 290.113281 C 265.101562 290.320312 266.46875 290.476562 267.820312 290.65625 C 267.832031 293.730469 267.292969 296.75 266.929688 300.253906 C 263.699219 295.175781 259.539062 292.183594 253.738281 291.726562 C 247.925781 291.269531 243.382812 293.535156 239.398438 298.371094 C 240.253906 293.234375 241.109375 288.675781 242.535156 284.238281 Z M 242.535156 284.238281 " fill-opacity="1" fill-rule="nonzero"/><path fill="#fdfdfa" d="M 224.371094 64.257812 C 219.640625 64.515625 215.023438 63.566406 210.382812 62.886719 C 197.4375 61 184.601562 60.667969 172.066406 65.273438 C 170.605469 65.8125 169.191406 66.492188 167.75 67.101562 C 170.121094 63.5 186.214844 55.121094 193.902344 56.480469 C 191.339844 57.769531 189.03125 58.78125 186.628906 60.441406 C 196.785156 58.617188 206.507812 59.144531 216.191406 61.023438 C 216.800781 61.144531 217.4375 61.085938 218.066406 61.113281 C 220.257812 61.972656 222.359375 63.027344 224.371094 64.257812 Z M 224.371094 64.257812 " fill-opacity="1" fill-rule="nonzero"/><path fill="#e16842" d="M 279.25 305.039062 C 276.152344 305.726562 273.03125 305.339844 269.921875 305.273438 C 269.214844 305.261719 268.75 304.953125 268.945312 304.070312 C 270.121094 298.757812 270.417969 293.339844 270.835938 287.933594 C 271.449219 290.394531 273.3125 289.535156 274.863281 289.425781 C 276.324219 289.328125 277.789062 288.621094 279.230469 289.523438 L 279.222656 289.535156 C 279.777344 289.980469 280.160156 290.523438 280.292969 291.242188 C 281.054688 295.304688 280.800781 299.34375 280.078125 303.378906 C 279.964844 304.011719 279.632812 304.542969 279.25 305.039062 Z M 279.25 305.039062 " fill-opacity="1" fill-rule="nonzero"/><path fill="#e38455" d="M 87.574219 68.347656 C 88.222656 69.039062 87.992188 69.894531 87.929688 70.679688 C 87.003906 81.914062 87.855469 92.941406 91.78125 103.597656 C 93.175781 107.390625 95.375 110.757812 97.710938 114.039062 C 98.015625 114.464844 98.414062 114.757812 98.957031 114.804688 C 97.207031 116.332031 95.464844 117.867188 93.699219 119.40625 C 92.152344 116.5 90.824219 112.976562 89.753906 109.332031 C 85.851562 96.019531 85.664062 82.488281 87.332031 68.84375 C 87.34375 68.667969 87.488281 68.515625 87.574219 68.347656 Z M 87.574219 68.347656 " fill-opacity="1" fill-rule="nonzero"/><path fill="#e18052" d="M 279.25 305.039062 C 279.316406 301.953125 280.152344 298.933594 280.003906 295.808594 C 279.902344 293.683594 279.621094 291.605469 279.222656 289.527344 C 281.902344 289.058594 284.621094 288.742188 287.152344 287.644531 C 287.28125 287.644531 287.402344 287.652344 287.53125 287.652344 C 287.542969 292.703125 287.8125 297.769531 286.21875 302.679688 C 286.089844 303.082031 286.175781 303.414062 286.359375 303.75 C 284.023438 304.386719 281.6875 304.984375 279.25 305.039062 Z M 279.25 305.039062 " fill-opacity="1" fill-rule="nonzero"/><path fill="#e17f53" d="M 141.746094 294.484375 C 142.0625 297.960938 142.730469 301.414062 142.164062 304.9375 C 142 305.953125 141.730469 307.042969 142.378906 308.03125 C 142.175781 308.441406 141.972656 308.777344 141.394531 308.609375 C 138.265625 307.675781 138.265625 307.6875 135.621094 309.484375 C 135.660156 304.070312 134.859375 298.878906 134.117188 293.675781 C 134.160156 293.628906 134.191406 293.5625 134.238281 293.535156 C 135.984375 292.621094 140.199219 293.125 141.636719 294.417969 Z M 141.746094 294.484375 " fill-opacity="1" fill-rule="nonzero"/><path fill="#b8bbc0" d="M 203.632812 309.539062 C 202.824219 311.789062 202.546875 313.988281 204.117188 316.074219 C 205.078125 317.355469 206.480469 318.074219 207.75 318.957031 C 207.578125 322.0625 208.035156 324.980469 210.523438 327.421875 C 209.144531 327.886719 207.960938 327.617188 206.796875 327.292969 C 199.753906 325.363281 196.429688 316.933594 200.460938 311.226562 C 201.214844 310.15625 202.042969 309.113281 203.632812 309.539062 Z M 203.632812 309.539062 " fill-opacity="1" fill-rule="nonzero"/><path fill="#e06842" d="M 141.636719 294.429688 C 139.128906 294.179688 136.621094 293.933594 134.113281 293.691406 C 133.242188 290.039062 132.375 286.386719 131.507812 282.730469 C 132.921875 281.304688 134.886719 281.757812 136.574219 281.265625 C 137.34375 281.042969 138.164062 281.003906 138.957031 280.882812 C 139 280.984375 139.03125 281.082031 139.058594 281.191406 C 139.902344 284.976562 140.953125 288.714844 141.464844 292.566406 C 141.542969 293.1875 141.578125 293.804688 141.636719 294.429688 Z M 141.636719 294.429688 " fill-opacity="1" fill-rule="nonzero"/><path fill="#bbbdc0" d="M 209.355469 320.085938 C 215.195312 321.699219 221.121094 321.464844 227.058594 320.859375 C 226.425781 324.988281 222.445312 328.242188 218.152344 328.15625 C 213.546875 328.054688 209.785156 324.605469 209.355469 320.085938 Z M 209.355469 320.085938 " fill-opacity="1" fill-rule="nonzero"/><path fill="#b8bbc1" d="M 140.164062 309.792969 C 140.21875 310.4375 139.988281 310.988281 139.679688 311.546875 C 137.988281 314.59375 138.507812 316.796875 141.34375 318.929688 C 141.980469 319.40625 142.554688 319.964844 143.160156 320.484375 C 143.582031 322.929688 143.792969 325.453125 145.851562 327.339844 C 140.585938 328.1875 135.203125 323.234375 134.851562 317.882812 C 134.664062 314.988281 134.871094 312.214844 137.253906 310.148438 C 138.089844 309.421875 139.039062 308.597656 140.164062 309.792969 Z M 140.164062 309.792969 " fill-opacity="1" fill-rule="nonzero"/><path fill="#bbbdc1" d="M 145.085938 321.230469 C 150.539062 322.667969 155.871094 321.894531 161.175781 320.410156 C 161.589844 320.292969 162.015625 320.207031 162.4375 320.105469 C 162.316406 323.332031 159.738281 326.640625 156.460938 327.804688 C 153.257812 328.933594 149.371094 327.871094 147.078125 325.167969 C 146.109375 324.027344 145.238281 322.796875 145.085938 321.230469 Z M 145.085938 321.230469 " fill-opacity="1" fill-rule="nonzero"/><path fill="#babdc1" d="M 164.007812 318.957031 C 167.917969 318.648438 170.644531 315.609375 170.8125 311.371094 C 173.417969 314.726562 173.4375 318.304688 171.535156 321.921875 C 169.449219 325.886719 166.082031 327.832031 161.28125 327.695312 C 163.652344 325.117188 164.34375 322.175781 164.007812 318.957031 Z M 164.007812 318.957031 " fill-opacity="1" fill-rule="nonzero"/><path fill="#fe874f" d="M 279.230469 289.515625 C 277.332031 289.769531 275.433594 290 273.546875 290.300781 C 271.65625 290.605469 270.457031 290.195312 270.835938 287.933594 C 270.753906 284.183594 270.675781 280.4375 270.59375 276.6875 C 270.945312 276.183594 271.246094 276.09375 271.773438 276.578125 C 275.59375 280.128906 278.320312 284.296875 279.230469 289.515625 Z M 279.230469 289.515625 " fill-opacity="1" fill-rule="nonzero"/><path fill="#b9bcc4" d="M 229.003906 318.957031 C 232.027344 318.976562 234.449219 317.941406 235.855469 315.085938 C 235.984375 314.828125 236.289062 314.660156 236.503906 314.453125 C 238.339844 320.972656 232.734375 327.984375 226.082031 327.441406 C 228.4375 325.027344 229.085938 322.109375 229.003906 318.957031 Z M 229.003906 318.957031 " fill-opacity="1" fill-rule="nonzero"/><path fill="#f1a169" d="M 124.695312 90.609375 C 123.460938 90.574219 122.335938 90.589844 122.046875 92.222656 C 121.773438 93.78125 119.316406 94.859375 121.046875 96.933594 C 121.242188 97.164062 120.667969 97.9375 120.101562 98.191406 C 120.101562 98.191406 120.117188 98.199219 120.117188 98.199219 C 119.738281 97.898438 119.605469 97.511719 119.710938 97.042969 C 118.574219 96.257812 117.25 96.378906 115.976562 96.308594 C 112.992188 96.160156 110.582031 94.90625 108.390625 92.605469 C 113.867188 91.246094 119.113281 89.632812 124.695312 90.609375 Z M 124.695312 90.609375 " fill-opacity="1" fill-rule="nonzero"/><path fill="#fdb97a" d="M 281.121094 158.1875 C 280.710938 159.320312 279.789062 159.429688 278.8125 159.226562 C 273.878906 158.21875 269.121094 156.714844 264.832031 153.996094 C 264.273438 153.640625 263.371094 153.242188 263.613281 152.542969 C 263.875 151.785156 264.835938 152.132812 265.464844 152.234375 C 268.359375 152.714844 271.238281 153.25 274.121094 153.800781 C 274.742188 153.921875 275.332031 154.191406 275.859375 153.605469 C 277.613281 155.132812 279.363281 156.660156 281.121094 158.1875 Z M 281.121094 158.1875 " fill-opacity="1" fill-rule="nonzero"/><path fill="#e5855d" d="M 203.585938 293.238281 C 204.050781 298.046875 204.21875 302.921875 206.648438 307.304688 C 206.109375 308.164062 205.523438 308.71875 204.367188 308.210938 C 203.429688 307.808594 202.398438 308.011719 201.179688 308.320312 C 201.988281 303.222656 202.785156 298.226562 203.585938 293.238281 Z M 203.585938 293.238281 " fill-opacity="1" fill-rule="nonzero"/><path fill="#a5a6a7" d="M 135.996094 212.960938 C 136.933594 214.535156 135.410156 215.65625 135.242188 217.03125 C 132.652344 215.71875 129.964844 214.582031 127.582031 212.894531 C 127.621094 212.585938 127.648438 212.277344 127.695312 211.964844 C 127.925781 210.480469 128.566406 210.085938 130.050781 210.757812 C 131.972656 211.636719 134.011719 212.242188 135.996094 212.960938 Z M 135.996094 212.960938 " fill-opacity="1" fill-rule="nonzero"/><path fill="#f7a97e" d="M 296.269531 163.503906 C 294.324219 163.105469 292.378906 162.71875 290.425781 162.320312 C 290.378906 162.308594 290.332031 162.273438 290.285156 162.246094 C 290.390625 162.132812 290.5 162.023438 290.605469 161.910156 C 293.015625 161.910156 295.425781 161.910156 298.402344 161.910156 C 297.40625 162.65625 296.835938 163.082031 296.269531 163.503906 Z M 296.269531 163.503906 " fill-opacity="1" fill-rule="nonzero"/><path fill="#febb7d" d="M 119.710938 97.035156 C 120.117188 97.332031 120.097656 97.769531 120.117188 98.191406 C 118.433594 99.121094 116.84375 98.550781 115.269531 97.882812 C 116.738281 97.546875 118.175781 97.042969 119.710938 97.035156 Z M 119.710938 97.035156 " fill-opacity="1" fill-rule="nonzero"/><path fill="#83c0d9" d="M 291.914062 159 C 293.636719 159 295.359375 158.992188 297.082031 158.992188 C 295.359375 159.4375 293.636719 159.464844 291.914062 159 Z M 291.914062 159 " fill-opacity="1" fill-rule="nonzero"/><path fill="#fe8550" d="M 166.867188 277.03125 C 166.390625 275.8125 166.605469 274.554688 166.671875 273.3125 C 167.011719 274.535156 166.949219 275.777344 166.867188 277.03125 Z M 166.867188 277.03125 " fill-opacity="1" fill-rule="nonzero"/><path fill="#43141f" d="M 164.296875 143.089844 C 164.828125 146.445312 165.003906 149.769531 163.847656 153.074219 C 160.492188 162.664062 150.492188 168.050781 140.441406 165.609375 C 139.953125 165.488281 139.464844 165.378906 138.980469 165.265625 C 136.085938 165.292969 134.144531 163.429688 132.097656 161.78125 C 126.269531 156.457031 124.34375 149.96875 126.304688 142.339844 C 126.566406 141.304688 126.847656 140.246094 127.957031 139.738281 C 131.78125 132.691406 137.617188 128.804688 145.71875 128.75 C 153.769531 128.695312 160.957031 133.949219 163.679688 141.566406 C 163.851562 142.078125 163.785156 142.714844 164.296875 143.089844 Z M 164.296875 143.089844 " fill-opacity="1" fill-rule="nonzero"/><path fill="#43141f" d="M 238.457031 161.21875 C 236.335938 162.9375 233.910156 164.144531 231.46875 165.304688 C 225.195312 166.980469 219.261719 166.300781 214.027344 162.308594 C 208.1875 157.863281 205.625 151.917969 206.574219 144.5625 C 206.640625 144.066406 206.660156 143.5625 206.703125 143.066406 C 208.019531 139.070312 210.074219 135.5625 213.40625 132.890625 C 222.75 125.4375 236.394531 128.257812 242.136719 138.820312 C 242.433594 139.375 242.710938 139.929688 243 140.488281 C 245.867188 148.363281 244.203125 155.234375 238.457031 161.21875 Z M 238.457031 161.21875 " fill-opacity="1" fill-rule="nonzero"/><path fill="#fe854f" d="M 127.957031 139.738281 C 124.578125 148.054688 126.261719 155.308594 132.578125 161.585938 C 132.355469 162.429688 131.613281 162.503906 130.953125 162.644531 C 125.28125 163.804688 120.648438 166.796875 116.582031 170.777344 C 115.6875 171.660156 114.832031 172.582031 113.890625 173.414062 C 113.277344 173.957031 112.65625 174.511719 111.742188 174.421875 C 111.511719 174.175781 111.289062 173.925781 111.0625 173.667969 C 108.542969 168.519531 106.78125 163.148438 106.15625 157.425781 C 106.746094 156.707031 107.601562 156.5 108.4375 156.230469 C 110.785156 155.46875 113.203125 154.863281 115.523438 153.425781 C 112.894531 152.496094 110.488281 153.324219 108.09375 153.359375 C 107.285156 153.371094 106.464844 153.621094 105.789062 152.949219 C 105.472656 146.882812 106.101562 140.851562 106.492188 134.808594 C 106.617188 134.800781 106.738281 134.800781 106.867188 134.800781 C 109.871094 134.847656 112.871094 134.640625 115.875 134.949219 C 120.359375 135.414062 124.214844 137.417969 127.957031 139.738281 Z M 127.957031 139.738281 " fill-opacity="1" fill-rule="nonzero"/><path fill="#fbf9f4" d="M 115.566406 55.699219 C 125.136719 58.785156 134.144531 62.96875 142.082031 69.261719 C 132.875 65.460938 124.257812 60.507812 115.566406 55.699219 Z M 115.566406 55.699219 " fill-opacity="1" fill-rule="nonzero"/><path fill="#fdfbf8" d="M 221.625 113.816406 C 220.945312 113.90625 220.496094 113.609375 220.339844 112.984375 C 220.179688 112.304688 220.65625 111.957031 221.195312 111.707031 C 224.109375 110.347656 227.207031 109.601562 230.371094 109.125 C 231.480469 108.957031 232.578125 108.585938 233.714844 108.796875 C 234.390625 108.917969 234.886719 109.285156 234.933594 110.019531 C 234.980469 110.730469 234.449219 111.046875 233.882812 111.136719 C 229.746094 111.761719 225.632812 112.546875 221.625 113.816406 Z M 221.625 113.816406 " fill-opacity="1" fill-rule="nonzero"/><path fill="#fcfcf9" d="M 138.984375 108.796875 C 142.882812 109.210938 146.78125 110.148438 150.511719 111.726562 C 151.125 111.988281 151.683594 112.324219 151.445312 113.117188 C 151.183594 114.007812 150.511719 114.011719 149.777344 113.796875 C 146.035156 112.707031 142.304688 111.605469 138.398438 111.210938 C 137.714844 111.140625 136.710938 111 136.832031 109.953125 C 136.964844 108.808594 137.933594 108.75 138.984375 108.796875 Z M 138.984375 108.796875 " fill-opacity="1" fill-rule="nonzero"/><path fill="#451220" d="M 193.15625 178.738281 C 193.035156 180.878906 192.753906 182.792969 192.300781 184.683594 C 191.546875 187.816406 189.171875 189.800781 186.019531 189.941406 C 182.539062 190.101562 180.128906 188.429688 179 185.179688 C 178.414062 183.5 178.292969 181.746094 178.078125 180.015625 C 177.957031 179.015625 177.714844 178.753906 176.625 178.894531 C 173.761719 179.265625 170.980469 179.015625 168.621094 177.050781 C 167.207031 175.882812 166.296875 174.4375 165.953125 172.648438 C 165.785156 171.789062 165.917969 170.941406 166.902344 170.664062 C 167.914062 170.382812 168.289062 170.992188 168.570312 171.921875 C 169.554688 175.121094 171.3125 176.351562 174.644531 176.367188 C 179.550781 176.378906 183.804688 172.386719 184.0625 167.492188 C 184.121094 166.363281 184.136719 165.230469 184.117188 164.09375 C 184.054688 161.15625 182.527344 159.441406 179.625 158.917969 C 178.023438 158.628906 176.777344 157.78125 176.476562 156.101562 C 176.171875 154.425781 177.148438 153.332031 178.582031 152.707031 C 183.132812 150.722656 187.703125 150.714844 192.234375 152.785156 C 193.761719 153.484375 194.878906 154.554688 194.585938 156.429688 C 194.289062 158.285156 192.8125 158.871094 191.25 159.300781 C 190.894531 159.402344 190.492188 159.355469 190.132812 159.449219 C 188.230469 159.949219 186.847656 161.722656 186.855469 163.699219 C 186.863281 165.332031 186.84375 166.972656 187.011719 168.59375 C 187.570312 173.859375 193.878906 177.75 198.820312 175.941406 C 200.570312 175.304688 201.847656 174.253906 202.191406 172.277344 C 202.339844 171.429688 202.554688 170.402344 203.792969 170.625 C 205.113281 170.867188 204.910156 171.976562 204.824219 172.882812 C 204.539062 175.78125 201.371094 178.570312 197.996094 178.949219 C 196.421875 179.136719 194.859375 179.117188 193.15625 178.738281 Z M 193.15625 178.738281 " fill-opacity="1" fill-rule="nonzero"/><path fill="#feb97c" d="M 111.734375 174.417969 C 115.570312 171.035156 118.9375 167.121094 123.5625 164.640625 C 126.429688 163.101562 129.480469 162.335938 132.570312 161.582031 C 134.550781 163.074219 136.71875 164.25 138.980469 165.257812 C 135.289062 166.242188 131.445312 166.664062 127.992188 168.460938 C 126.734375 169.113281 125.453125 169.714844 124.113281 171.035156 C 127.582031 170.664062 130.589844 169.984375 134.191406 170.402344 C 129.488281 171.960938 125.375 173.683594 121.925781 176.789062 C 124.667969 176.695312 127.347656 176.882812 130.078125 177.308594 C 127.230469 178.671875 124.015625 179.070312 121.273438 180.703125 C 124.046875 179.914062 126.839844 179.277344 129.742188 179.136719 C 125.953125 180.527344 121.953125 181.429688 118.640625 183.894531 C 118.507812 183.882812 118.378906 183.871094 118.246094 183.855469 C 115.839844 180.878906 113.203125 178.054688 111.734375 174.417969 Z M 111.734375 174.417969 " fill-opacity="1" fill-rule="nonzero"/><path fill="#cbd3d8" d="M 173.425781 241.261719 C 173.0625 239.09375 172.867188 237.328125 173.601562 235.195312 C 174.226562 235.949219 174.820312 236.742188 175.492188 237.457031 C 178.273438 240.433594 181.90625 242.011719 185.570312 243.554688 C 186.035156 243.75 186.566406 244.058594 186.996094 243.707031 C 187.582031 243.230469 186.992188 242.664062 186.882812 242.160156 C 186.667969 241.132812 186.222656 240.152344 186.296875 238.632812 C 188.5 239.863281 190.640625 240.621094 192.960938 240.648438 C 193.390625 240.65625 194.097656 240.871094 194.03125 240.332031 C 193.75 238.203125 195.136719 239.359375 195.875 239.335938 C 197.136719 239.296875 198.394531 239.316406 199.652344 239.335938 C 200.070312 239.34375 200.621094 239.195312 200.789062 239.742188 C 200.910156 240.136719 200.523438 240.414062 200.257812 240.675781 C 198.246094 242.640625 196.488281 245.105469 193.089844 244.191406 C 192.980469 245.050781 193.519531 245.171875 193.964844 245.363281 C 194.625 245.636719 195.339844 245.960938 195.203125 246.792969 C 195.0625 247.6875 194.207031 247.882812 193.464844 247.96875 C 191.953125 248.152344 190.457031 247.992188 189.035156 247.367188 C 188.648438 247.199219 188.210938 247.144531 187.609375 246.988281 C 188.015625 247.648438 188.371094 248.125 188.625 248.65625 C 188.875 249.1875 189.5 249.773438 188.882812 250.34375 C 188.324219 250.867188 187.582031 250.734375 186.949219 250.351562 C 185.71875 249.597656 184.417969 248.953125 183.347656 247.957031 C 182.816406 247.460938 182.277344 246.949219 181.421875 246.839844 C 181.328125 247.824219 182.386719 249.160156 181.300781 249.570312 C 180.46875 249.886719 179.761719 248.5 179.09375 247.789062 C 178.253906 246.886719 177.539062 245.859375 176.703125 244.796875 C 176.644531 245.085938 176.582031 245.214844 176.609375 245.316406 C 176.773438 246.109375 177.175781 247.183594 176.421875 247.582031 C 175.585938 248.019531 175.175781 246.8125 174.570312 246.34375 C 171.144531 243.703125 168.570312 240.488281 167.589844 236.15625 C 167.378906 235.222656 167.292969 234.316406 167.476562 232.9375 C 168.886719 236.210938 170.476562 238.921875 173.425781 241.261719 Z M 173.425781 241.261719 " fill-opacity="1" fill-rule="nonzero"/><path fill="#d0d7db" d="M 204.164062 233.980469 C 203.523438 237.046875 200.15625 239.070312 197.769531 237.878906 C 197.277344 237.636719 196.597656 237.367188 196.730469 236.734375 C 196.859375 236.117188 197.578125 236.324219 198.023438 236.359375 C 200.421875 236.519531 202.21875 235.109375 204.164062 233.980469 Z M 204.164062 233.980469 " fill-opacity="1" fill-rule="nonzero"/><path fill="#d7c2b1" d="M 134.503906 223.511719 C 133.371094 224.726562 132.171875 225.882812 131.242188 227.304688 C 131.648438 223.953125 133.808594 221.433594 135.183594 218.554688 C 135.074219 220.0625 134.964844 221.566406 134.859375 223.074219 C 134.738281 223.214844 134.625 223.363281 134.503906 223.511719 Z M 134.503906 223.511719 " fill-opacity="1" fill-rule="nonzero"/><path fill="#fdb97b" d="M 105.785156 152.941406 C 109.007812 152.691406 112.207031 151.894531 115.472656 152.519531 C 116.003906 152.617188 116.757812 152.421875 116.859375 153.148438 C 116.953125 153.808594 116.21875 154.042969 115.746094 154.257812 C 112.65625 155.644531 109.511719 156.875 106.148438 157.433594 C 106.148438 155.921875 105.542969 154.460938 105.785156 152.941406 Z M 105.785156 152.941406 " fill-opacity="1" fill-rule="nonzero"/><path fill="#fdfdfc" d="M 151.527344 144.589844 C 149.089844 144.585938 147.152344 142.582031 147.183594 140.105469 C 147.21875 137.714844 149.089844 135.917969 151.574219 135.910156 C 154.105469 135.902344 156.003906 137.761719 156.015625 140.253906 C 156.023438 142.632812 153.996094 144.597656 151.527344 144.589844 Z M 151.527344 144.589844 " fill-opacity="1" fill-rule="nonzero"/><path fill="#edc6c7" d="M 129.277344 148.941406 C 131.863281 157.269531 137.445312 161.703125 145.792969 162.972656 C 139.746094 164.035156 129.871094 158.609375 129.277344 148.941406 Z M 129.277344 148.941406 " fill-opacity="1" fill-rule="nonzero"/><path fill="#fdfdfc" d="M 234.371094 140.28125 C 234.347656 142.707031 232.355469 144.617188 229.894531 144.578125 C 227.507812 144.539062 225.53125 142.472656 225.570312 140.066406 C 225.609375 137.707031 227.503906 135.925781 229.980469 135.929688 C 232.484375 135.925781 234.390625 137.820312 234.371094 140.28125 Z M 234.371094 140.28125 " fill-opacity="1" fill-rule="nonzero"/><path fill="#e1bcc6" d="M 209.710938 150.023438 C 212.25 156.53125 216.394531 160.667969 223.066406 162.644531 C 216.347656 162.433594 210.183594 155.832031 209.710938 150.023438 Z M 209.710938 150.023438 " fill-opacity="1" fill-rule="nonzero"/><path fill="#fc824b" d="M 185.550781 172.609375 C 186.855469 174.515625 188.167969 176.109375 189.992188 177.207031 C 190.449219 177.480469 190.765625 177.8125 190.667969 178.421875 C 190.324219 180.398438 190.101562 182.402344 189.648438 184.351562 C 189.207031 186.261719 187.824219 187.222656 185.785156 187.332031 C 183.757812 187.441406 182.339844 186.621094 181.640625 184.757812 C 180.859375 182.679688 180.8125 180.460938 180.554688 178.28125 C 180.496094 177.785156 180.695312 177.433594 181.101562 177.179688 C 182.878906 176.058594 184.210938 174.484375 185.550781 172.609375 Z M 185.550781 172.609375 " fill-opacity="1" fill-rule="nonzero"/><path fill="#fad3d2" d="M 185.113281 153.84375 C 187.097656 153.941406 189.042969 154.039062 190.875 154.832031 C 191.460938 155.085938 192.105469 155.441406 192.09375 156.136719 C 192.074219 156.96875 191.238281 156.671875 190.753906 156.792969 C 189.136719 157.191406 187.675781 157.871094 186.410156 158.9375 C 185.71875 159.53125 185.050781 159.625 184.492188 158.851562 C 183.421875 157.371094 181.914062 156.738281 180.199219 156.410156 C 179.820312 156.335938 179.195312 156.492188 179.113281 155.894531 C 179.035156 155.28125 179.613281 155.066406 180.023438 154.824219 C 181.613281 153.894531 183.410156 154.003906 185.113281 153.84375 Z M 185.113281 153.84375 " fill-opacity="1" fill-rule="nonzero"/></svg>